<svg id="svg" version="1.1" xmlns="http://www.w3.org/2000/svg" xmlns:xlink="http://www.w3.org/1999/xlink" width="400" height="400" viewBox="0, 0, 400,400"><g id="svgg"><path id="path0" d="M0.000 200.000 L 0.000 400.000 200.000 400.000 L 400.000 400.000 400.000 200.000 L 400.000 0.000 200.000 0.000 L 0.000 0.000 0.000 200.000 M266.270 109.454 C 269.918 111.236,274.394 116.974,274.398 119.876 C 274.399 120.358,274.580 120.864,274.800 121.000 C 275.020 121.136,275.200 121.680,275.200 122.210 C 275.200 122.740,275.453 123.764,275.762 124.486 C 276.070 125.209,276.546 126.610,276.818 127.600 C 277.091 128.590,277.767 130.794,278.322 132.497 C 279.528 136.200,279.436 136.383,275.392 138.374 C 269.720 141.167,266.250 150.431,268.964 155.538 C 269.274 156.122,269.803 157.232,270.138 158.005 C 271.318 160.724,271.989 160.994,277.726 161.051 C 284.929 161.123,288.693 163.002,291.928 168.141 C 294.116 171.617,294.129 171.706,294.284 184.956 C 294.446 198.828,294.551 198.400,290.962 198.400 C 289.799 198.400,288.736 198.580,288.600 198.800 C 288.464 199.020,288.006 199.200,287.582 199.200 C 284.417 199.200,279.527 204.737,277.667 210.428 C 275.642 216.623,279.770 226.501,285.502 229.180 C 286.106 229.463,286.884 229.835,287.232 230.008 C 287.579 230.180,289.022 230.446,290.438 230.597 C 294.725 231.057,294.444 230.072,294.284 244.052 C 294.207 250.734,293.995 256.740,293.812 257.400 C 293.181 259.682,288.851 265.600,287.812 265.600 C 287.687 265.600,286.871 266.050,286.000 266.600 C 285.129 267.150,283.973 267.600,283.432 267.600 C 282.890 267.600,282.336 267.780,282.200 268.000 C 281.858 268.554,118.142 268.554,117.800 268.000 C 117.664 267.780,117.105 267.600,116.557 267.600 C 114.570 267.600,108.432 262.855,108.408 261.300 C 108.403 261.025,108.247 260.800,108.061 260.800 C 107.761 260.800,107.124 259.492,105.956 256.481 C 105.760 255.976,105.600 250.282,105.600 243.827 L 105.600 232.092 106.510 231.496 C 107.010 231.168,108.405 230.777,109.610 230.628 C 113.148 230.188,114.931 229.308,117.710 226.633 C 119.845 224.578,122.000 221.058,122.000 219.627 C 122.000 219.198,122.180 218.736,122.400 218.600 C 122.621 218.464,122.800 216.670,122.800 214.600 C 122.800 212.530,122.621 210.736,122.400 210.600 C 122.180 210.464,122.000 209.834,122.000 209.200 C 122.000 208.566,121.825 207.939,121.611 207.807 C 121.397 207.674,120.935 206.963,120.585 206.225 C 119.162 203.225,114.482 199.200,112.418 199.200 C 111.994 199.200,111.536 199.020,111.400 198.800 C 111.264 198.580,110.233 198.400,109.108 198.400 C 105.475 198.400,105.600 198.870,105.600 185.162 C 105.600 177.650,105.748 173.156,106.000 173.000 C 106.220 172.864,106.400 172.393,106.400 171.953 C 106.400 171.208,107.783 168.418,109.048 166.611 C 109.374 166.145,109.600 164.803,109.600 163.335 C 109.600 161.967,109.780 160.736,110.000 160.600 C 110.220 160.464,110.400 159.974,110.400 159.512 C 110.400 156.802,116.127 150.800,118.712 150.800 C 119.112 150.800,119.611 150.646,119.820 150.458 C 120.293 150.032,124.127 148.800,124.981 148.800 C 125.327 148.800,125.923 148.644,126.305 148.454 C 127.358 147.929,129.677 147.142,130.800 146.929 C 131.350 146.825,132.160 146.594,132.600 146.417 C 134.448 145.671,139.948 144.000,140.554 144.000 C 140.915 144.000,141.523 143.844,141.905 143.654 C 143.198 143.009,145.394 142.301,146.704 142.106 C 147.421 141.999,148.106 141.751,148.227 141.556 C 148.348 141.360,148.966 141.200,149.600 141.200 C 150.234 141.200,150.854 141.036,150.978 140.835 C 151.103 140.634,151.922 140.348,152.800 140.200 C 153.678 140.052,154.497 139.766,154.622 139.565 C 154.746 139.364,155.289 139.200,155.829 139.200 C 156.369 139.200,157.123 139.042,157.505 138.850 C 157.887 138.657,159.280 138.189,160.600 137.810 C 161.920 137.431,163.313 136.958,163.695 136.760 C 164.077 136.562,164.745 136.400,165.181 136.400 C 165.617 136.400,166.564 136.152,167.286 135.848 C 168.547 135.318,169.193 135.118,173.200 134.011 C 174.190 133.738,175.630 133.287,176.400 133.009 C 178.965 132.085,180.650 131.600,181.296 131.600 C 181.648 131.600,182.445 131.348,183.068 131.040 C 183.690 130.732,184.830 130.306,185.600 130.094 C 186.370 129.882,187.810 129.487,188.800 129.216 C 189.790 128.945,191.191 128.470,191.914 128.162 C 192.636 127.853,193.660 127.600,194.190 127.600 C 194.720 127.600,195.264 127.420,195.400 127.200 C 195.536 126.980,196.066 126.800,196.578 126.800 C 197.090 126.800,198.024 126.531,198.654 126.202 C 199.284 125.874,200.194 125.604,200.676 125.602 C 201.158 125.601,201.664 125.420,201.800 125.200 C 201.936 124.980,202.466 124.800,202.978 124.800 C 203.490 124.800,204.424 124.531,205.054 124.202 C 205.684 123.874,206.594 123.604,207.076 123.602 C 207.558 123.601,208.064 123.420,208.200 123.200 C 208.336 122.980,208.966 122.800,209.600 122.800 C 210.234 122.800,210.864 122.620,211.000 122.400 C 211.136 122.180,211.666 122.000,212.178 122.000 C 212.690 122.000,213.624 121.731,214.254 121.402 C 214.884 121.074,215.794 120.804,216.276 120.802 C 216.758 120.801,217.264 120.620,217.400 120.400 C 217.536 120.180,218.001 120.000,218.434 120.000 C 219.255 120.000,225.285 118.170,226.495 117.554 C 226.877 117.359,227.545 117.200,227.981 117.200 C 228.417 117.200,229.364 116.947,230.086 116.638 C 230.809 116.330,232.210 115.852,233.200 115.578 C 234.190 115.304,236.274 114.657,237.830 114.140 C 239.387 113.623,240.964 113.200,241.335 113.200 C 241.707 113.200,242.323 113.044,242.705 112.854 C 243.998 112.209,246.194 111.501,247.504 111.306 C 248.221 111.199,248.906 110.951,249.027 110.756 C 249.148 110.560,249.741 110.400,250.344 110.400 C 250.947 110.400,251.611 110.243,251.820 110.051 C 254.051 108.005,262.580 107.652,266.270 109.454 M257.074 113.060 C 256.815 113.319,254.217 114.204,250.800 115.197 C 249.810 115.485,247.726 116.143,246.170 116.660 C 244.613 117.177,242.959 117.600,242.494 117.600 C 242.028 117.600,241.536 117.780,241.400 118.000 C 241.264 118.220,240.668 118.406,240.076 118.413 C 239.484 118.420,238.651 118.690,238.224 119.013 C 237.796 119.336,237.029 119.600,236.518 119.600 C 236.007 119.600,235.277 119.765,234.895 119.967 C 234.513 120.168,233.120 120.629,231.800 120.990 C 230.480 121.351,229.087 121.816,228.705 122.023 C 228.323 122.231,227.569 122.400,227.029 122.400 C 226.489 122.400,225.936 122.580,225.800 122.800 C 225.664 123.020,225.158 123.201,224.676 123.202 C 224.194 123.204,223.284 123.474,222.654 123.802 C 222.024 124.131,221.090 124.400,220.578 124.400 C 220.066 124.400,219.536 124.580,219.400 124.800 C 219.264 125.020,218.734 125.200,218.222 125.200 C 217.710 125.200,216.776 125.469,216.146 125.798 C 215.516 126.126,214.606 126.396,214.124 126.398 C 213.642 126.399,213.136 126.580,213.000 126.800 C 212.864 127.020,212.358 127.201,211.876 127.202 C 211.394 127.203,209.740 127.649,208.200 128.193 C 206.660 128.738,204.995 129.187,204.500 129.192 C 204.005 129.196,203.600 129.380,203.600 129.600 C 203.600 129.820,203.156 130.000,202.614 130.000 C 202.071 130.000,201.036 130.248,200.314 130.552 C 198.403 131.355,196.244 132.000,195.466 132.000 C 195.094 132.000,194.477 132.156,194.095 132.346 C 193.042 132.871,190.723 133.658,189.600 133.871 C 189.050 133.975,188.240 134.206,187.800 134.384 C 187.360 134.562,185.920 135.020,184.600 135.403 C 183.280 135.786,181.887 136.257,181.505 136.450 C 181.123 136.642,180.469 136.800,180.051 136.800 C 179.633 136.800,178.776 137.069,178.146 137.398 C 177.516 137.726,176.606 137.996,176.124 137.998 C 175.642 137.999,175.136 138.180,175.000 138.400 C 174.864 138.620,174.234 138.800,173.600 138.800 C 172.966 138.800,172.336 138.980,172.200 139.200 C 172.064 139.420,171.534 139.600,171.022 139.600 C 170.510 139.600,169.576 139.869,168.946 140.198 C 168.316 140.526,167.406 140.796,166.924 140.798 C 166.442 140.799,165.936 140.980,165.800 141.200 C 165.664 141.420,165.111 141.600,164.571 141.600 C 164.031 141.600,163.277 141.769,162.895 141.977 C 162.513 142.184,161.120 142.652,159.800 143.017 C 158.480 143.381,157.040 143.828,156.600 144.010 C 156.160 144.191,155.350 144.425,154.800 144.529 C 153.677 144.742,151.358 145.529,150.305 146.054 C 149.923 146.244,149.104 146.400,148.485 146.400 C 147.866 146.400,147.189 146.554,146.980 146.742 C 146.507 147.168,142.673 148.400,141.819 148.400 C 141.473 148.400,140.877 148.562,140.495 148.760 C 139.312 149.371,133.346 151.200,132.532 151.200 C 132.107 151.200,131.589 151.354,131.380 151.542 C 130.907 151.968,127.073 153.200,126.219 153.200 C 125.873 153.200,125.277 153.358,124.895 153.552 C 124.513 153.745,123.210 154.210,122.000 154.586 C 119.190 155.457,117.930 156.049,117.285 156.800 C 114.765 159.736,113.814 163.065,115.882 161.709 C 116.909 161.037,120.818 161.000,191.482 161.000 C 262.185 161.000,266.000 160.964,266.000 160.300 C 266.000 159.915,265.820 159.600,265.600 159.600 C 265.380 159.600,265.200 159.276,265.200 158.880 C 265.200 158.484,265.037 157.989,264.839 157.780 C 262.945 155.788,262.945 145.412,264.839 143.420 C 265.037 143.211,265.200 142.802,265.200 142.511 C 265.200 140.909,269.790 135.770,272.274 134.592 C 273.577 133.973,274.058 132.730,273.200 132.200 C 272.980 132.064,272.800 131.434,272.800 130.800 C 272.800 130.166,272.620 129.536,272.400 129.400 C 272.180 129.264,272.000 128.734,272.000 128.222 C 272.000 127.710,271.731 126.776,271.402 126.146 C 271.074 125.516,270.804 124.606,270.802 124.124 C 270.801 123.642,270.620 123.136,270.400 123.000 C 270.180 122.864,270.000 122.234,270.000 121.600 C 270.000 120.966,269.834 120.345,269.631 120.219 C 269.428 120.094,269.143 119.453,268.999 118.795 C 268.174 115.040,259.341 110.792,257.074 113.060 M116.774 166.521 C 111.251 169.229,110.343 171.714,110.127 184.700 L 109.972 194.000 111.391 194.000 C 112.172 194.000,113.123 194.160,113.505 194.356 C 113.887 194.552,114.963 195.047,115.895 195.456 C 116.828 195.865,117.593 196.335,117.595 196.500 C 117.598 196.665,117.841 196.800,118.135 196.800 C 119.400 196.800,125.200 203.489,125.200 204.948 C 125.200 205.281,125.358 205.651,125.552 205.770 C 127.003 206.667,127.848 217.321,126.742 220.772 C 126.117 222.723,125.064 224.972,124.700 225.133 C 124.535 225.207,124.400 225.444,124.400 225.660 C 124.400 226.148,122.488 228.747,121.404 229.730 C 118.209 232.631,116.145 234.000,114.968 234.000 C 114.655 234.000,114.400 234.180,114.400 234.400 C 114.400 234.620,113.868 234.800,113.219 234.800 C 112.569 234.800,111.573 235.012,111.005 235.271 L 109.972 235.741 110.127 244.771 C 110.296 254.628,110.457 255.869,111.859 258.092 C 112.377 258.913,112.802 259.723,112.805 259.892 C 112.810 260.177,114.373 261.311,116.800 262.790 C 118.308 263.710,246.800 263.933,246.800 263.016 C 246.800 261.207,249.767 260.934,250.432 262.683 L 250.802 263.657 266.701 263.528 L 282.600 263.400 284.869 261.800 C 286.117 260.920,287.237 259.930,287.357 259.600 C 287.611 258.906,288.487 257.492,288.845 257.200 C 289.451 256.704,289.716 253.549,289.872 244.973 L 290.040 235.747 289.001 235.273 C 288.430 235.013,287.608 234.800,287.176 234.800 C 286.743 234.800,286.077 234.640,285.695 234.444 C 285.313 234.249,284.280 233.754,283.400 233.344 C 281.564 232.490,275.600 226.731,275.600 225.813 C 275.600 225.476,275.420 225.200,275.200 225.200 C 274.980 225.200,274.800 224.851,274.800 224.424 C 274.800 223.997,274.642 223.549,274.448 223.430 C 272.276 222.087,272.276 207.113,274.448 205.770 C 274.642 205.651,274.800 205.239,274.800 204.856 C 274.800 203.514,280.703 196.822,281.900 196.806 C 282.175 196.803,282.400 196.664,282.400 196.498 C 282.400 195.926,287.387 194.000,288.869 194.000 L 290.040 194.000 289.865 184.500 C 289.690 174.996,289.425 172.000,288.756 172.000 C 288.560 172.000,288.400 171.753,288.400 171.450 C 288.400 170.480,284.908 167.218,282.990 166.396 C 281.244 165.647,280.218 165.600,265.767 165.600 L 250.400 165.600 250.400 167.377 C 250.400 169.693,249.250 170.713,247.747 169.729 C 246.989 169.232,246.800 168.757,246.800 167.354 L 246.800 165.600 182.700 165.613 L 118.600 165.625 116.774 166.521 M250.400 175.431 C 250.400 179.511,250.226 180.000,248.771 180.000 C 246.615 180.000,245.715 173.218,247.697 171.902 C 249.608 170.633,250.400 171.667,250.400 175.431 M250.315 185.478 C 250.444 189.625,249.842 190.603,247.749 189.650 C 246.861 189.245,246.800 189.004,246.800 185.889 C 246.800 182.163,247.147 181.500,248.998 181.682 L 250.200 181.800 250.315 185.478 M249.771 191.829 C 251.034 193.091,250.570 199.761,249.200 200.044 C 247.508 200.393,246.800 199.151,246.800 195.837 C 246.800 191.816,248.060 190.117,249.771 191.829 M228.943 195.312 C 231.111 197.610,231.195 198.348,231.198 214.922 C 231.200 233.031,231.136 233.325,226.740 235.333 C 224.318 236.439,143.115 236.346,140.678 235.234 C 138.999 234.468,137.838 233.384,136.900 231.705 C 136.110 230.293,136.188 198.949,136.985 197.351 C 138.972 193.366,134.687 193.690,184.659 193.749 L 227.517 193.800 228.943 195.312 M141.700 198.088 L 140.800 198.522 140.813 214.361 C 140.823 226.898,140.936 230.346,141.357 230.900 C 142.202 232.013,225.130 231.982,226.138 230.869 C 226.730 230.214,226.800 228.488,226.800 214.491 L 226.800 198.845 225.911 198.223 C 224.795 197.441,143.312 197.311,141.700 198.088 M250.200 205.800 C 250.200 209.616,250.159 209.806,249.321 209.925 C 247.280 210.216,246.800 209.443,246.800 205.866 C 246.800 202.165,247.149 201.500,248.998 201.682 L 250.200 201.800 250.200 205.800 M157.800 204.800 L 157.800 206.600 155.107 206.718 L 152.414 206.836 152.307 216.518 L 152.200 226.200 150.600 226.200 L 149.000 226.200 148.893 216.518 L 148.786 206.836 146.093 206.718 L 143.400 206.600 143.272 205.262 C 143.028 202.720,142.871 202.771,150.691 202.891 L 157.800 203.000 157.800 204.800 M162.600 214.600 L 162.600 226.200 161.000 226.200 L 159.400 226.200 159.288 215.400 C 159.154 202.519,159.126 202.712,161.113 202.877 L 162.600 203.000 162.600 214.600 M178.932 203.300 C 180.557 204.044,180.353 206.537,178.651 206.731 C 178.019 206.803,177.308 206.668,177.071 206.431 C 175.701 205.061,169.600 207.596,169.600 209.536 C 169.600 209.741,169.331 210.424,169.002 211.054 C 167.537 213.865,168.618 219.224,171.110 221.500 C 172.633 222.891,177.209 223.431,178.293 222.347 C 179.105 221.535,180.000 222.279,180.000 223.765 C 180.000 227.491,170.057 227.440,167.858 223.702 C 167.669 223.382,167.174 222.828,166.758 222.471 C 166.341 222.114,166.000 221.538,166.000 221.191 C 166.000 220.844,165.778 220.338,165.508 220.068 C 164.135 218.695,165.359 207.200,166.877 207.200 C 167.055 207.200,167.200 206.955,167.200 206.656 C 167.200 206.357,167.670 205.772,168.244 205.356 C 168.819 204.940,169.526 204.375,169.816 204.100 C 170.106 203.825,170.615 203.600,170.948 203.600 C 171.281 203.600,171.664 203.420,171.800 203.200 C 172.153 202.628,177.633 202.705,178.932 203.300 M185.586 203.574 C 185.814 203.999,186.000 206.011,186.000 208.045 L 186.000 211.743 188.160 208.571 C 192.097 202.791,192.966 202.121,195.342 203.033 C 196.200 203.362,193.278 208.579,191.925 209.133 C 191.746 209.207,191.600 209.490,191.600 209.764 C 191.600 210.037,191.150 210.683,190.600 211.200 C 189.594 212.145,189.300 213.514,189.951 214.220 C 190.281 214.578,191.342 216.420,193.049 219.600 C 193.462 220.370,193.903 221.090,194.029 221.200 C 194.155 221.310,194.382 221.670,194.533 222.000 C 194.683 222.330,195.175 223.209,195.625 223.954 C 196.758 225.827,196.406 226.476,194.344 226.323 C 193.195 226.238,192.545 225.958,192.241 225.415 C 191.998 224.983,191.381 223.931,190.870 223.075 C 189.865 221.396,188.121 218.308,187.421 216.969 C 186.470 215.150,186.000 216.369,186.000 220.660 C 186.000 225.987,184.616 228.056,182.480 225.920 C 181.796 225.236,181.796 203.964,182.480 203.280 C 183.241 202.519,185.117 202.697,185.586 203.574 M208.171 203.429 C 210.089 205.346,208.556 206.753,204.400 206.889 L 201.000 207.000 201.000 209.600 L 201.000 212.200 204.500 212.316 L 208.000 212.431 208.000 214.000 L 208.000 215.569 204.500 215.684 L 201.000 215.800 200.884 219.300 L 200.769 222.800 204.807 222.800 L 208.846 222.800 208.723 224.500 L 208.600 226.200 203.496 226.312 C 196.130 226.474,196.800 227.623,196.800 214.814 C 196.800 201.741,196.271 202.800,202.800 202.800 C 206.578 202.800,207.671 202.928,208.171 203.429 M224.226 203.759 C 224.828 206.158,224.432 206.583,221.400 206.800 L 218.600 207.000 218.400 216.600 L 218.200 226.200 216.800 226.200 L 215.400 226.200 215.293 216.500 L 215.186 206.800 212.436 206.800 C 209.424 206.800,208.831 206.208,209.436 203.800 L 209.687 202.800 216.836 202.800 L 223.985 202.800 224.226 203.759 M249.626 211.614 C 250.844 212.266,250.780 218.888,249.547 219.752 C 248.789 220.283,248.590 220.281,247.747 219.729 C 246.349 218.813,246.305 212.792,247.689 211.823 C 248.744 211.084,248.654 211.094,249.626 211.614 M250.400 225.431 C 250.400 229.511,250.226 230.000,248.771 230.000 C 246.615 230.000,245.715 223.218,247.697 221.902 C 249.608 220.633,250.400 221.667,250.400 225.431 M250.315 235.478 C 250.444 239.625,249.842 240.603,247.749 239.650 C 246.861 239.245,246.800 239.004,246.800 235.889 C 246.800 232.163,247.147 231.500,248.998 231.682 L 250.200 231.800 250.315 235.478 M249.771 241.829 C 250.438 242.495,250.693 248.522,250.094 249.460 C 249.638 250.173,248.688 250.224,247.700 249.588 C 245.696 248.296,246.663 241.392,248.871 241.221 C 249.021 241.209,249.426 241.483,249.771 241.829 M250.319 254.999 C 250.467 258.990,250.234 260.000,249.166 260.000 C 247.148 260.000,246.800 259.392,246.800 255.866 C 246.800 252.165,247.149 251.500,248.998 251.682 L 250.200 251.800 250.319 254.999 " stroke="none" fill="#fbfbfb" fill-rule="evenodd"></path><path id="path1" d="M254.400 109.842 C 252.970 110.364,251.483 110.793,251.095 110.795 C 250.707 110.798,250.077 110.956,249.695 111.146 C 248.642 111.671,246.323 112.458,245.200 112.671 C 244.650 112.775,243.840 113.006,243.400 113.184 C 242.960 113.362,241.520 113.823,240.200 114.210 C 238.880 114.596,237.440 115.046,237.000 115.210 C 236.560 115.375,235.390 115.727,234.400 115.993 C 233.410 116.259,232.009 116.730,231.286 117.038 C 230.564 117.347,229.540 117.600,229.010 117.600 C 228.480 117.600,227.936 117.780,227.800 118.000 C 227.664 118.220,227.134 118.400,226.622 118.400 C 226.110 118.400,225.176 118.669,224.546 118.998 C 223.916 119.326,223.006 119.596,222.524 119.598 C 222.042 119.599,221.536 119.780,221.400 120.000 C 221.264 120.220,220.711 120.400,220.171 120.400 C 219.631 120.400,218.877 120.558,218.495 120.750 C 218.113 120.943,216.720 121.411,215.400 121.790 C 214.080 122.169,212.687 122.642,212.305 122.840 C 211.923 123.038,211.255 123.200,210.819 123.200 C 210.383 123.200,209.436 123.453,208.714 123.762 C 207.991 124.070,206.590 124.548,205.600 124.822 C 204.610 125.096,202.540 125.719,201.000 126.206 C 199.460 126.694,197.390 127.324,196.400 127.606 C 194.400 128.178,190.661 129.350,185.752 130.945 C 183.965 131.525,182.207 132.000,181.846 132.000 C 181.485 132.000,180.877 132.162,180.495 132.360 C 180.113 132.558,178.720 133.031,177.400 133.410 C 176.080 133.789,174.687 134.257,174.305 134.450 C 173.923 134.642,173.169 134.800,172.629 134.800 C 172.089 134.800,171.545 134.966,171.419 135.169 C 171.294 135.372,170.608 135.657,169.895 135.802 C 168.575 136.071,166.439 136.681,165.000 137.199 C 164.560 137.358,163.120 137.801,161.800 138.184 C 160.480 138.567,159.087 139.042,158.705 139.240 C 158.323 139.438,157.569 139.600,157.029 139.600 C 156.489 139.600,155.946 139.764,155.822 139.965 C 155.697 140.166,154.878 140.452,154.000 140.600 C 153.122 140.748,152.303 141.034,152.178 141.235 C 152.054 141.436,151.572 141.600,151.106 141.600 C 150.641 141.600,148.987 142.023,147.430 142.540 C 145.874 143.057,143.790 143.714,142.800 144.000 C 141.810 144.286,139.726 144.943,138.170 145.460 C 136.613 145.977,135.036 146.400,134.665 146.400 C 134.293 146.400,133.677 146.562,133.295 146.760 C 132.913 146.958,131.520 147.431,130.200 147.810 C 128.880 148.189,127.487 148.657,127.105 148.850 C 126.723 149.042,125.994 149.200,125.485 149.200 C 124.976 149.200,124.389 149.343,124.180 149.518 C 123.971 149.693,122.720 150.166,121.400 150.571 C 120.080 150.975,118.370 151.580,117.600 151.916 C 115.984 152.622,111.600 156.932,111.600 157.816 C 111.600 158.143,111.433 158.723,111.229 159.105 C 110.692 160.109,109.988 164.303,110.244 164.970 C 110.443 165.488,109.821 167.116,109.240 167.600 C 108.707 168.044,107.064 171.500,106.674 173.000 C 106.445 173.880,106.194 179.553,106.117 185.607 L 105.976 196.614 107.150 197.307 C 107.806 197.694,109.136 198.000,110.167 198.000 C 111.181 198.000,112.323 198.154,112.705 198.343 C 115.401 199.674,116.440 200.376,118.238 202.082 C 119.359 203.146,120.778 205.048,121.393 206.308 C 122.008 207.569,122.666 208.913,122.855 209.295 C 123.298 210.187,123.306 218.991,122.865 219.905 C 122.680 220.287,122.028 221.635,121.416 222.900 C 120.288 225.229,115.729 230.000,114.631 230.000 C 114.334 230.000,113.579 230.266,112.953 230.591 C 112.327 230.915,110.784 231.298,109.524 231.440 C 105.833 231.858,105.954 231.421,106.108 243.846 C 106.236 254.161,106.582 257.531,107.623 258.580 C 107.830 258.789,108.000 259.192,108.000 259.475 C 108.000 260.380,112.225 265.200,113.018 265.200 C 113.301 265.200,113.593 265.335,113.667 265.500 C 114.557 267.504,109.841 267.400,200.000 267.400 C 290.159 267.400,285.443 267.504,286.333 265.500 C 286.407 265.335,286.679 265.200,286.937 265.200 C 287.704 265.200,291.200 261.617,291.200 260.830 C 291.200 260.630,291.335 260.407,291.500 260.333 C 292.012 260.106,293.200 257.224,293.200 256.210 C 293.200 255.680,293.380 255.136,293.600 255.000 C 293.851 254.845,294.000 250.601,294.000 243.590 C 294.000 230.906,294.298 231.906,290.373 231.430 C 289.148 231.282,287.642 230.899,287.027 230.580 C 286.412 230.261,285.742 230.000,285.537 230.000 C 284.621 230.000,279.914 225.413,278.826 223.459 C 274.090 214.956,277.875 202.038,286.000 198.968 C 286.330 198.844,286.913 198.575,287.295 198.371 C 287.677 198.167,288.819 198.000,289.833 198.000 C 290.857 198.000,292.193 197.695,292.838 197.314 L 294.000 196.628 294.000 185.537 C 294.000 178.575,293.851 174.355,293.600 174.200 C 293.380 174.064,293.200 173.507,293.200 172.963 C 293.200 170.484,288.787 164.579,286.000 163.330 C 282.205 161.629,282.056 161.600,277.071 161.600 L 272.062 161.600 270.731 160.030 C 268.651 157.578,266.995 152.687,267.319 149.958 C 268.121 143.220,270.682 139.693,276.879 136.792 C 278.354 136.102,278.482 132.748,277.086 131.353 C 276.929 131.195,276.800 130.644,276.800 130.128 C 276.800 129.612,276.631 128.877,276.423 128.495 C 276.216 128.113,275.748 126.720,275.383 125.400 C 275.019 124.080,274.579 122.640,274.407 122.200 C 274.234 121.760,273.758 120.275,273.347 118.900 C 272.936 117.525,272.465 116.400,272.300 116.400 C 272.135 116.400,272.000 116.130,272.000 115.800 C 272.000 114.725,267.887 110.948,265.525 109.854 C 262.498 108.452,258.224 108.448,254.400 109.842 M265.220 113.412 C 267.170 114.644,269.372 117.399,270.005 119.400 C 270.283 120.280,270.641 121.360,270.799 121.800 C 271.084 122.588,272.131 126.065,272.907 128.800 C 273.126 129.570,273.569 130.853,273.891 131.651 C 274.602 133.411,274.443 134.542,273.457 134.732 C 271.870 135.038,267.146 139.694,266.171 141.915 C 264.959 144.673,264.859 144.995,264.393 147.654 C 263.800 151.032,264.464 155.568,266.019 158.763 C 266.619 159.993,267.029 161.135,266.931 161.300 C 266.833 161.465,233.238 161.606,192.276 161.614 C 128.468 161.626,117.657 161.710,116.800 162.200 C 114.973 163.245,113.465 162.994,113.787 161.700 C 114.863 157.385,117.809 154.932,124.000 153.197 C 124.990 152.919,127.090 152.266,128.667 151.746 C 130.244 151.226,131.879 150.800,132.301 150.800 C 132.722 150.800,133.183 150.684,133.325 150.541 C 133.710 150.156,137.691 148.828,138.505 148.813 C 138.893 148.806,139.523 148.638,139.905 148.440 C 140.287 148.242,141.680 147.769,143.000 147.390 C 144.320 147.011,145.713 146.543,146.095 146.350 C 146.477 146.158,147.154 146.000,147.600 146.000 C 148.046 146.000,148.723 145.844,149.105 145.654 C 150.158 145.129,152.477 144.342,153.600 144.129 C 154.150 144.025,154.960 143.799,155.400 143.626 C 155.840 143.453,157.280 142.999,158.600 142.616 C 159.920 142.233,161.313 141.758,161.695 141.560 C 162.077 141.362,162.754 141.200,163.200 141.200 C 163.646 141.200,164.323 141.042,164.705 140.850 C 165.087 140.657,166.480 140.189,167.800 139.810 C 169.120 139.431,170.513 138.958,170.895 138.760 C 171.277 138.562,171.945 138.400,172.381 138.400 C 172.817 138.400,173.764 138.147,174.486 137.838 C 175.209 137.530,176.610 137.052,177.600 136.778 C 178.590 136.504,180.750 135.853,182.400 135.332 C 184.050 134.811,185.940 134.233,186.600 134.047 C 189.106 133.342,192.631 132.276,193.400 131.991 C 195.814 131.095,200.787 129.600,201.354 129.600 C 201.715 129.600,202.323 129.438,202.705 129.240 C 203.087 129.042,204.480 128.569,205.800 128.190 C 207.120 127.811,208.513 127.343,208.895 127.150 C 209.277 126.958,210.031 126.800,210.571 126.800 C 211.111 126.800,211.654 126.636,211.778 126.435 C 211.903 126.234,212.722 125.948,213.600 125.800 C 214.478 125.652,215.297 125.366,215.422 125.165 C 215.546 124.964,216.089 124.800,216.629 124.800 C 217.169 124.800,217.923 124.638,218.305 124.440 C 218.687 124.242,220.080 123.769,221.400 123.390 C 222.720 123.011,224.113 122.543,224.495 122.350 C 224.877 122.158,225.476 122.000,225.827 122.000 C 226.178 122.000,227.756 121.573,229.333 121.051 C 234.121 119.466,239.019 118.000,239.529 118.000 C 239.794 118.000,240.323 117.838,240.705 117.640 C 241.888 117.029,247.854 115.200,248.668 115.200 C 249.093 115.200,249.611 115.050,249.820 114.868 C 250.029 114.685,251.370 114.215,252.800 113.823 C 254.230 113.432,255.760 112.958,256.200 112.770 C 258.571 111.757,263.110 112.081,265.220 113.412 M247.600 167.200 C 247.910 169.988,249.742 169.910,249.922 167.100 L 250.044 165.200 266.150 165.200 C 283.994 165.200,283.521 165.137,286.553 167.901 C 287.990 169.211,288.892 170.621,289.939 173.200 C 291.193 176.286,291.046 194.400,289.768 194.400 C 287.966 194.400,284.219 195.998,281.296 198.013 C 279.305 199.386,275.200 204.548,275.200 205.679 C 275.200 206.002,275.074 206.393,274.920 206.547 C 273.372 208.095,272.700 216.297,273.832 219.829 C 275.319 224.468,276.323 226.243,279.000 228.964 C 281.597 231.603,282.195 232.010,286.495 234.068 C 286.877 234.250,287.687 234.403,288.295 234.406 C 290.626 234.419,290.600 234.299,290.600 244.927 C 290.600 251.444,290.448 254.999,290.141 255.640 C 289.888 256.168,289.393 257.257,289.041 258.060 C 288.689 258.862,287.752 260.168,286.960 260.960 C 285.627 262.293,284.940 262.697,281.881 263.944 C 281.111 264.258,276.034 264.400,265.603 264.400 L 250.444 264.400 249.922 263.330 C 249.177 261.801,248.505 261.751,247.700 263.164 L 247.000 264.395 183.119 264.397 C 136.199 264.399,118.941 264.279,118.119 263.944 C 115.124 262.723,114.496 262.342,113.147 260.925 C 109.866 257.480,109.613 256.324,109.606 244.743 C 109.599 234.038,109.521 234.400,111.838 234.400 C 112.373 234.400,113.123 234.241,113.505 234.048 C 113.887 233.854,115.100 233.279,116.200 232.770 C 126.365 228.066,130.002 212.999,123.382 203.020 C 120.786 199.106,115.631 195.200,113.063 195.200 C 112.724 195.200,112.336 195.020,112.200 194.800 C 112.064 194.580,111.423 194.400,110.776 194.400 L 109.600 194.400 109.606 184.500 C 109.612 174.103,109.736 173.189,111.533 170.300 C 112.389 168.923,114.632 166.897,116.600 165.723 C 117.212 165.358,132.655 165.264,182.400 165.323 L 247.400 165.400 247.600 167.200 M247.600 175.551 C 247.600 177.958,247.752 178.828,248.243 179.236 C 249.342 180.148,250.000 178.683,250.000 175.324 L 250.000 172.400 248.800 172.400 L 247.600 172.400 247.600 175.551 M248.031 182.563 C 246.979 183.830,247.662 188.984,248.900 189.127 L 250.000 189.253 250.000 186.259 C 250.000 182.165,249.359 180.962,248.031 182.563 M248.061 192.499 C 246.669 193.891,247.763 199.969,249.261 199.167 C 249.878 198.837,250.000 198.280,250.000 195.800 C 250.000 192.675,249.218 191.342,248.061 192.499 M139.069 195.709 C 137.180 197.490,137.106 198.361,137.266 216.708 L 137.400 232.011 138.785 233.306 L 140.170 234.600 183.114 234.705 C 230.842 234.822,228.056 234.975,229.385 232.174 C 229.956 230.971,230.019 228.806,229.916 213.845 L 229.800 196.879 228.400 195.646 L 227.000 194.413 183.728 194.406 L 140.457 194.400 139.069 195.709 M226.300 197.577 L 227.200 198.328 227.200 214.433 C 227.200 228.857,227.131 230.613,226.538 231.269 C 225.705 232.189,141.796 232.436,140.880 231.520 C 139.869 230.509,140.229 198.442,141.261 197.547 C 142.609 196.378,224.897 196.407,226.300 197.577 M248.080 202.480 C 247.382 203.178,247.444 208.573,248.158 209.165 C 248.588 209.522,248.862 209.481,249.358 208.985 C 250.274 208.069,250.282 202.594,249.367 202.243 C 248.562 201.934,248.641 201.919,248.080 202.480 M173.000 203.600 C 172.864 203.820,172.346 204.000,171.848 204.000 C 165.713 204.000,163.327 217.987,168.518 223.528 C 170.391 225.527,177.027 226.463,178.959 225.000 C 180.389 223.918,179.127 223.232,175.869 223.321 C 170.273 223.475,168.000 220.964,168.000 214.626 C 168.000 210.163,168.956 208.209,172.086 206.272 C 173.375 205.474,177.199 205.362,177.947 206.100 C 178.472 206.618,179.600 205.608,179.600 204.621 C 179.600 203.609,173.571 202.676,173.000 203.600 M143.672 204.900 C 143.790 205.726,144.013 205.801,146.400 205.812 L 149.000 205.825 149.107 215.712 L 149.214 225.600 150.407 225.600 L 151.600 225.600 151.606 216.300 C 151.613 205.547,151.449 206.079,154.810 205.921 C 157.148 205.812,157.412 205.712,157.528 204.900 L 157.656 204.000 150.600 204.000 L 143.544 204.000 143.672 204.900 M160.000 214.773 L 160.000 225.600 160.992 225.600 C 162.391 225.600,162.441 225.161,162.313 214.000 L 162.200 204.200 161.100 204.073 L 160.000 203.947 160.000 214.773 M182.800 214.773 L 182.800 225.600 183.800 225.600 C 184.798 225.600,184.800 225.593,184.801 221.700 C 184.803 218.518,184.949 217.561,185.596 216.500 C 186.877 214.398,186.840 214.357,191.701 223.200 C 192.819 225.234,193.364 225.679,194.553 225.532 L 195.614 225.400 194.857 224.000 C 194.441 223.230,193.720 221.970,193.254 221.200 C 192.788 220.430,192.281 219.530,192.128 219.200 C 191.974 218.870,191.298 217.696,190.624 216.590 C 188.298 212.771,188.352 213.203,189.926 211.000 C 190.712 209.900,192.131 207.963,193.078 206.696 C 195.142 203.934,195.132 204.000,193.487 204.000 C 192.236 204.000,187.671 209.415,186.704 212.044 C 186.574 212.399,186.079 212.791,185.604 212.915 C 184.753 213.137,184.742 213.076,184.846 208.670 L 184.951 204.200 183.876 204.073 L 182.800 203.947 182.800 214.773 M198.000 214.800 L 198.000 225.600 203.200 225.600 L 208.400 225.600 208.400 224.414 L 208.400 223.228 204.300 223.114 L 200.200 223.000 200.200 219.200 L 200.200 215.400 203.900 215.285 L 207.600 215.170 207.600 214.000 L 207.600 212.830 203.900 212.715 L 200.200 212.600 200.084 209.523 C 199.942 205.772,200.251 205.502,204.522 205.643 C 207.205 205.732,207.409 205.679,207.528 204.869 C 207.653 204.018,207.556 204.000,202.828 204.000 L 198.000 204.000 198.000 214.800 M210.000 205.025 C 210.000 206.019,210.069 206.046,212.300 205.937 C 215.785 205.767,215.600 205.200,215.600 216.024 L 215.600 225.600 216.800 225.600 L 218.000 225.600 218.006 216.300 C 218.013 205.515,217.941 205.753,221.130 205.934 C 223.047 206.042,223.537 205.942,223.746 205.397 C 224.229 204.137,223.544 204.000,216.776 204.000 L 210.000 204.000 210.000 205.025 M248.031 212.563 C 247.031 213.768,247.656 219.000,248.800 219.000 C 249.765 219.000,249.804 218.898,249.918 216.063 C 250.028 213.330,249.662 212.000,248.800 212.000 C 248.634 212.000,248.288 212.253,248.031 212.563 M247.600 225.551 C 247.600 227.958,247.752 228.828,248.243 229.236 C 249.342 230.148,250.000 228.683,250.000 225.324 L 250.000 222.400 248.800 222.400 L 247.600 222.400 247.600 225.551 M248.031 232.563 C 246.979 233.830,247.662 238.984,248.900 239.127 L 250.000 239.253 250.000 236.259 C 250.000 232.165,249.359 230.962,248.031 232.563 M248.061 242.499 C 246.669 243.891,247.763 249.969,249.261 249.167 C 249.878 248.837,250.000 248.280,250.000 245.800 C 250.000 242.675,249.218 241.342,248.061 242.499 M248.080 252.480 C 247.382 253.178,247.444 258.573,248.158 259.165 C 248.588 259.522,248.862 259.481,249.358 258.985 C 250.274 258.069,250.282 252.594,249.367 252.243 C 248.562 251.934,248.641 251.919,248.080 252.480 " stroke="none" fill="#141414" fill-rule="evenodd"></path><path id="path2" d="M259.700 108.276 C 260.085 108.376,260.715 108.376,261.100 108.276 C 261.485 108.175,261.170 108.093,260.400 108.093 C 259.630 108.093,259.315 108.175,259.700 108.276 M254.400 109.025 C 253.491 109.369,253.280 109.561,253.800 109.571 C 254.240 109.581,255.320 109.329,256.200 109.012 C 257.407 108.577,257.555 108.443,256.800 108.465 C 256.250 108.482,255.170 108.734,254.400 109.025 M263.400 108.666 C 265.426 109.106,268.553 111.073,270.390 113.065 C 271.495 114.263,272.400 115.091,272.400 114.904 C 272.400 113.418,265.378 108.343,263.463 108.446 C 262.661 108.490,262.656 108.505,263.400 108.666 M249.000 110.800 C 248.864 111.020,248.268 111.206,247.676 111.214 C 247.084 111.222,246.150 111.504,245.600 111.842 C 244.950 112.241,244.880 112.356,245.400 112.171 C 245.840 112.015,246.721 111.798,247.358 111.689 C 248.825 111.440,250.885 110.406,249.924 110.402 C 249.552 110.401,249.136 110.580,249.000 110.800 M258.900 112.687 C 259.505 112.778,260.495 112.778,261.100 112.687 C 261.705 112.595,261.210 112.520,260.000 112.520 C 258.790 112.520,258.295 112.595,258.900 112.687 M237.871 114.087 C 236.589 114.520,235.615 114.948,235.704 115.037 C 235.794 115.127,236.932 114.857,238.233 114.436 C 239.535 114.016,240.960 113.587,241.400 113.483 C 242.026 113.334,241.983 113.294,241.200 113.296 C 240.650 113.298,239.152 113.654,237.871 114.087 M253.200 114.039 C 252.650 114.234,251.390 114.656,250.400 114.977 C 249.410 115.299,248.857 115.570,249.172 115.581 C 249.762 115.601,251.560 115.072,254.000 114.163 C 254.770 113.876,255.130 113.651,254.800 113.663 C 254.470 113.675,253.750 113.844,253.200 114.039 M266.700 115.547 C 267.855 116.700,268.800 117.803,268.800 117.996 C 268.800 118.642,269.620 120.514,269.816 120.317 C 270.477 119.656,267.898 115.739,265.883 114.340 C 265.016 113.738,265.281 114.130,266.700 115.547 M232.600 115.696 C 229.864 116.634,229.181 116.915,229.314 117.047 C 229.453 117.186,230.981 116.727,233.600 115.759 C 235.246 115.150,234.356 115.095,232.600 115.696 M244.200 116.800 C 244.064 117.020,243.558 117.214,243.076 117.232 C 242.594 117.249,242.413 117.350,242.673 117.456 C 242.933 117.562,243.923 117.376,244.873 117.043 C 246.318 116.537,246.424 116.435,245.524 116.419 C 244.932 116.409,244.336 116.580,244.200 116.800 M226.400 117.588 C 226.070 117.776,224.900 118.220,223.800 118.574 C 221.787 119.222,222.572 119.173,225.233 118.485 C 226.951 118.041,228.509 117.218,227.600 117.236 C 227.270 117.242,226.730 117.401,226.400 117.588 M273.206 117.224 C 273.237 118.140,274.366 120.444,274.370 119.600 C 274.372 119.050,274.110 118.251,273.787 117.824 C 273.464 117.396,273.203 117.126,273.206 117.224 M236.800 119.025 C 235.538 119.503,235.501 119.557,236.424 119.577 C 236.986 119.590,237.796 119.336,238.224 119.013 C 239.157 118.307,238.689 118.311,236.800 119.025 M217.400 120.400 C 217.264 120.620,216.815 120.800,216.402 120.800 C 215.477 120.800,213.422 121.555,213.671 121.804 C 213.849 121.982,215.205 121.592,218.000 120.559 C 219.045 120.172,219.178 120.036,218.524 120.021 C 218.042 120.009,217.536 120.180,217.400 120.400 M231.200 120.800 C 230.667 121.145,230.667 121.188,231.200 121.188 C 231.530 121.188,232.070 121.013,232.400 120.800 C 232.933 120.455,232.933 120.412,232.400 120.412 C 232.070 120.412,231.530 120.587,231.200 120.800 M227.600 121.825 C 226.342 122.301,226.303 122.357,227.220 122.377 C 227.781 122.390,228.411 122.237,228.620 122.039 C 228.829 121.840,229.360 121.591,229.800 121.485 L 230.600 121.293 229.800 121.294 C 229.360 121.295,228.370 121.534,227.600 121.825 M270.021 121.876 C 270.009 122.358,270.180 122.864,270.400 123.000 C 270.620 123.136,270.800 123.585,270.800 123.998 C 270.800 124.923,271.555 126.978,271.804 126.729 C 271.982 126.551,271.592 125.195,270.559 122.400 C 270.172 121.355,270.036 121.222,270.021 121.876 M208.200 123.200 C 208.064 123.420,207.615 123.600,207.202 123.600 C 206.277 123.600,204.222 124.355,204.471 124.604 C 204.571 124.704,205.181 124.609,205.826 124.393 C 206.472 124.177,207.810 123.739,208.800 123.419 C 210.237 122.955,210.383 122.834,209.524 122.819 C 208.932 122.809,208.336 122.980,208.200 123.200 M221.200 123.825 C 220.180 124.211,220.032 124.361,220.654 124.377 C 221.124 124.390,222.024 124.131,222.654 123.802 C 224.042 123.078,223.136 123.093,221.200 123.825 M275.416 124.200 C 275.568 124.640,275.839 125.540,276.017 126.200 C 276.594 128.327,277.222 129.945,277.026 128.800 C 276.697 126.871,276.110 124.926,275.627 124.167 C 275.156 123.425,275.149 123.426,275.416 124.200 M218.200 124.800 C 217.429 125.131,217.431 125.145,218.276 125.172 C 218.758 125.187,219.264 125.020,219.400 124.800 C 219.692 124.327,219.301 124.327,218.200 124.800 M215.200 125.639 C 214.650 125.834,213.390 126.256,212.400 126.577 C 210.960 127.045,210.815 127.166,211.676 127.181 C 212.268 127.191,212.849 127.044,212.968 126.853 C 213.086 126.661,213.896 126.391,214.768 126.251 C 215.640 126.112,216.465 125.818,216.601 125.599 C 216.886 125.138,216.592 125.146,215.200 125.639 M198.842 126.034 C 197.263 126.666,198.104 126.809,199.815 126.200 C 200.687 125.889,201.040 125.639,200.600 125.643 C 200.160 125.647,199.369 125.823,198.842 126.034 M192.000 128.200 C 191.365 128.563,191.227 128.777,191.620 128.786 C 191.961 128.794,192.411 128.635,192.620 128.434 C 192.829 128.232,193.450 127.987,194.000 127.888 L 195.000 127.709 194.000 127.669 C 193.450 127.646,192.550 127.886,192.000 128.200 M206.400 128.400 C 206.070 128.613,205.350 128.815,204.800 128.848 C 203.981 128.898,203.948 128.938,204.615 129.071 C 205.063 129.160,206.053 128.963,206.815 128.632 C 207.577 128.302,207.930 128.027,207.600 128.022 C 207.270 128.017,206.730 128.187,206.400 128.400 M186.000 130.000 C 185.670 130.213,185.029 130.391,184.576 130.394 C 184.124 130.397,183.404 130.665,182.976 130.988 C 182.260 131.530,182.294 131.546,183.400 131.188 C 184.060 130.975,185.410 130.539,186.400 130.219 C 187.390 129.900,187.840 129.632,187.400 129.625 C 186.960 129.618,186.330 129.787,186.000 130.000 M199.600 130.439 C 199.050 130.634,197.790 131.071,196.800 131.411 C 195.810 131.751,195.450 131.945,196.000 131.842 C 197.958 131.477,199.878 130.908,200.633 130.469 C 201.530 129.949,201.026 129.934,199.600 130.439 M272.825 130.876 C 272.811 131.468,272.997 132.075,273.238 132.223 C 273.478 132.372,273.591 132.936,273.487 133.477 C 273.358 134.155,273.428 134.332,273.713 134.047 C 273.998 133.762,273.928 133.037,273.488 131.716 C 272.985 130.207,272.844 130.028,272.825 130.876 M179.000 132.096 C 176.264 133.034,175.581 133.315,175.714 133.447 C 175.853 133.586,177.381 133.127,180.000 132.159 C 181.646 131.550,180.756 131.495,179.000 132.096 M278.210 133.200 C 278.350 133.750,278.556 134.579,278.668 135.043 C 278.811 135.635,278.547 136.141,277.782 136.743 C 277.182 137.214,276.865 137.600,277.076 137.600 C 278.618 137.600,279.434 135.398,278.578 133.546 C 278.172 132.667,278.044 132.547,278.210 133.200 M190.600 133.200 C 190.464 133.420,189.868 133.625,189.276 133.654 C 188.368 133.700,188.337 133.736,189.077 133.879 C 189.559 133.973,190.459 133.776,191.077 133.441 C 191.828 133.034,191.976 132.827,191.524 132.816 C 191.152 132.807,190.736 132.980,190.600 133.200 M169.800 134.896 C 167.064 135.834,166.381 136.115,166.514 136.247 C 166.590 136.323,167.181 136.209,167.826 135.993 C 168.472 135.777,169.810 135.339,170.800 135.019 C 171.790 134.700,172.240 134.449,171.800 134.462 C 171.360 134.475,170.460 134.670,169.800 134.896 M270.800 135.503 C 268.120 137.599,265.193 141.254,265.205 142.491 C 265.207 142.771,265.670 142.190,266.232 141.200 C 267.434 139.085,269.189 137.151,271.360 135.550 C 272.218 134.918,272.758 134.402,272.560 134.404 C 272.362 134.407,271.570 134.901,270.800 135.503 M183.200 135.425 C 182.318 135.759,182.096 135.957,182.600 135.959 C 183.040 135.962,183.940 135.717,184.600 135.414 C 186.127 134.715,185.055 134.723,183.200 135.425 M180.000 136.400 L 179.000 136.720 180.076 136.760 C 180.668 136.782,181.264 136.620,181.400 136.400 C 181.681 135.945,181.420 135.945,180.000 136.400 M163.600 136.785 C 163.270 136.971,162.234 137.349,161.298 137.626 C 160.362 137.903,159.673 138.207,159.768 138.301 C 159.962 138.496,162.392 137.770,164.200 136.977 C 164.860 136.688,165.130 136.450,164.800 136.449 C 164.470 136.448,163.930 136.599,163.600 136.785 M177.200 137.239 C 176.650 137.434,175.390 137.856,174.400 138.177 C 172.960 138.645,172.815 138.766,173.676 138.781 C 174.268 138.791,174.849 138.644,174.968 138.453 C 175.086 138.261,175.896 137.991,176.768 137.851 C 177.640 137.712,178.465 137.418,178.601 137.199 C 178.886 136.738,178.592 136.746,177.200 137.239 M274.200 138.610 L 273.000 139.616 274.600 138.736 C 276.620 137.625,276.650 137.600,275.967 137.602 C 275.655 137.603,274.860 138.057,274.200 138.610 M154.600 139.600 C 154.464 139.820,153.958 140.014,153.476 140.032 C 152.994 140.049,152.813 140.150,153.073 140.256 C 153.333 140.362,154.323 140.176,155.273 139.843 C 156.718 139.337,156.824 139.235,155.924 139.219 C 155.332 139.209,154.736 139.380,154.600 139.600 M167.800 140.098 C 164.445 141.253,163.800 141.559,164.676 141.579 C 165.158 141.591,165.649 141.444,165.768 141.253 C 165.886 141.061,166.696 140.791,167.568 140.651 C 168.440 140.512,169.265 140.218,169.401 139.999 C 169.692 139.527,169.408 139.544,167.800 140.098 M271.524 140.700 C 270.357 141.952,268.389 145.385,268.421 146.114 C 268.433 146.381,268.887 145.702,269.432 144.604 C 269.976 143.506,270.965 141.931,271.629 141.104 C 273.045 139.342,272.989 139.128,271.524 140.700 M148.200 141.600 C 147.908 142.073,148.299 142.073,149.400 141.600 C 150.171 141.269,150.169 141.255,149.324 141.228 C 148.842 141.213,148.336 141.380,148.200 141.600 M144.800 142.600 C 143.508 143.339,144.167 143.344,146.200 142.612 C 147.468 142.155,147.593 142.034,146.800 142.032 C 146.250 142.030,145.350 142.286,144.800 142.600 M158.600 142.898 C 155.629 143.921,154.652 144.360,155.305 144.379 C 155.693 144.391,156.323 144.236,156.705 144.035 C 157.087 143.835,158.300 143.396,159.400 143.060 C 160.500 142.724,161.040 142.457,160.600 142.467 C 160.160 142.477,159.260 142.671,158.600 142.898 M138.000 144.625 C 136.742 145.101,136.703 145.157,137.620 145.177 C 138.181 145.190,138.811 145.037,139.020 144.839 C 139.229 144.640,139.760 144.391,140.200 144.285 L 141.000 144.093 140.200 144.094 C 139.760 144.095,138.770 144.334,138.000 144.625 M152.200 144.898 C 148.845 146.053,148.200 146.359,149.076 146.379 C 149.558 146.391,150.064 146.220,150.200 146.000 C 150.336 145.780,150.842 145.594,151.324 145.586 C 151.806 145.578,152.650 145.314,153.200 145.000 C 154.350 144.343,153.936 144.301,152.200 144.898 M263.686 146.931 C 263.053 149.658,263.096 152.124,263.821 154.600 C 264.241 156.034,264.351 156.204,264.211 155.200 C 263.547 150.460,263.520 149.402,264.006 147.375 C 264.294 146.176,264.449 145.115,264.351 145.017 C 264.253 144.920,263.954 145.781,263.686 146.931 M129.200 147.442 C 128.536 147.849,128.469 147.962,129.000 147.778 C 129.440 147.626,130.340 147.362,131.000 147.191 C 132.098 146.908,132.115 146.880,131.200 146.855 C 130.650 146.840,129.750 147.104,129.200 147.442 M143.600 147.600 C 143.270 147.813,142.550 148.011,142.000 148.040 C 141.364 148.074,141.245 148.157,141.673 148.271 C 142.043 148.368,143.123 148.176,144.073 147.843 C 145.023 147.510,145.440 147.232,145.000 147.225 C 144.560 147.218,143.930 147.387,143.600 147.600 M267.768 149.031 C 267.620 149.818,267.680 151.213,267.902 152.131 C 268.286 153.725,268.306 153.662,268.352 150.700 C 268.404 147.354,268.195 146.756,267.768 149.031 M122.400 149.425 C 121.630 149.716,121.270 149.962,121.600 149.971 C 121.930 149.981,122.920 149.729,123.800 149.412 C 124.680 149.095,125.040 148.849,124.600 148.865 C 124.160 148.882,123.170 149.134,122.400 149.425 M133.800 150.614 C 132.213 151.341,132.980 151.339,135.000 150.612 C 135.880 150.295,136.240 150.042,135.800 150.050 C 135.360 150.058,134.460 150.312,133.800 150.614 M116.100 151.926 C 115.165 152.512,114.400 153.122,114.400 153.282 C 114.400 153.503,117.202 151.842,118.367 150.930 C 119.103 150.354,117.455 151.078,116.100 151.926 M127.800 152.400 C 127.664 152.620,127.158 152.814,126.676 152.832 C 126.194 152.849,126.013 152.950,126.273 153.056 C 126.533 153.162,127.523 152.976,128.473 152.643 C 129.918 152.137,130.024 152.035,129.124 152.019 C 128.532 152.009,127.936 152.180,127.800 152.400 M113.134 154.352 C 112.278 155.352,110.399 158.575,110.404 159.035 C 110.406 159.236,110.945 158.500,111.603 157.400 C 112.260 156.300,113.090 154.995,113.448 154.500 C 114.236 153.408,114.027 153.310,113.134 154.352 M118.749 155.500 C 118.272 156.109,118.278 156.140,118.800 155.743 C 119.130 155.492,119.760 155.198,120.200 155.089 C 120.960 154.903,120.957 154.890,120.149 154.846 C 119.681 154.821,119.051 155.115,118.749 155.500 M268.400 155.086 C 268.400 155.740,270.111 158.822,270.345 158.588 C 270.456 158.477,270.334 158.174,270.073 157.913 C 269.813 157.653,269.594 157.161,269.587 156.820 C 269.573 156.119,268.400 154.406,268.400 155.086 M116.520 157.300 C 116.069 157.795,115.494 158.650,115.242 159.200 C 114.853 160.048,114.861 160.086,115.292 159.446 C 115.571 159.032,116.221 158.177,116.736 157.546 C 117.845 156.187,117.692 156.013,116.520 157.300 M265.200 158.911 C 265.200 159.290,265.380 159.600,265.600 159.600 C 265.820 159.600,266.000 159.915,266.000 160.300 C 266.000 160.964,262.293 160.995,192.930 160.897 C 152.742 160.840,119.950 160.884,120.060 160.994 C 120.170 161.104,153.097 161.199,193.230 161.205 C 272.600 161.218,267.403 161.368,265.828 159.118 C 265.314 158.385,265.200 158.347,265.200 158.911 M270.400 159.306 C 270.400 159.386,270.952 159.979,271.626 160.624 C 272.300 161.270,272.742 161.529,272.609 161.199 C 272.391 160.662,270.400 158.955,270.400 159.306 M109.867 160.667 C 109.720 160.813,109.615 161.398,109.634 161.967 C 109.668 162.981,109.675 162.979,110.021 161.820 C 110.385 160.603,110.331 160.202,109.867 160.667 M278.000 161.213 C 280.750 161.413,283.413 161.762,283.919 161.988 C 285.289 162.602,285.560 162.455,284.309 161.776 C 283.568 161.374,281.584 161.131,278.109 161.016 L 273.000 160.848 278.000 161.213 M115.776 161.787 C 115.349 162.110,115.189 162.380,115.420 162.387 C 115.651 162.394,116.011 162.232,116.220 162.027 C 116.429 161.821,117.320 161.582,118.200 161.494 L 119.800 161.334 118.176 161.267 C 117.269 161.230,116.211 161.459,115.776 161.787 M286.185 162.924 C 286.617 163.186,288.040 164.390,289.347 165.600 C 290.789 166.936,291.451 167.378,291.032 166.727 C 290.302 165.589,286.377 162.384,285.763 162.424 C 285.563 162.436,285.753 162.661,286.185 162.924 M183.300 165.499 L 246.800 165.602 246.800 167.355 C 246.800 168.757,246.989 169.232,247.747 169.729 C 249.248 170.712,250.400 169.693,250.400 167.382 L 250.400 165.610 265.300 165.498 L 280.200 165.386 265.200 165.393 L 250.200 165.400 250.075 167.200 C 249.841 170.564,247.337 170.647,247.122 167.298 L 247.000 165.400 183.400 165.398 L 119.800 165.396 183.300 165.499 M108.653 167.191 C 108.074 168.067,107.600 168.917,107.600 169.080 C 107.600 169.244,107.842 169.023,108.139 168.589 C 109.441 166.681,110.078 165.600,109.899 165.600 C 109.793 165.600,109.232 166.316,108.653 167.191 M284.411 167.066 C 284.955 167.433,286.102 168.468,286.960 169.366 C 288.318 170.788,288.405 170.831,287.633 169.699 C 286.732 168.380,284.416 166.400,283.773 166.400 C 283.580 166.400,283.867 166.700,284.411 167.066 M113.334 168.502 C 112.010 169.983,110.698 172.032,110.927 172.260 C 111.045 172.378,111.425 171.925,111.772 171.254 C 112.120 170.582,112.872 169.564,113.444 168.992 C 114.017 168.420,114.406 167.873,114.311 167.777 C 114.215 167.682,113.775 168.007,113.334 168.502 M292.199 169.198 C 292.565 169.905,293.198 171.500,293.607 172.742 C 294.015 173.984,294.361 174.743,294.375 174.428 C 294.428 173.210,292.586 168.578,291.867 168.123 C 291.684 168.007,291.833 168.491,292.199 169.198 M106.789 170.421 C 106.547 170.872,106.406 171.514,106.475 171.846 C 106.544 172.179,106.798 171.809,107.040 171.025 C 107.535 169.423,107.442 169.200,106.789 170.421 M247.067 172.267 C 246.127 173.207,247.014 180.000,248.076 180.000 C 248.322 180.000,248.212 179.655,247.830 179.234 C 247.266 178.610,247.161 177.866,247.268 175.233 C 247.341 173.454,247.385 171.999,247.367 171.999 C 247.348 172.000,247.213 172.120,247.067 172.267 M250.080 175.420 C 250.032 177.599,249.809 179.231,249.520 179.520 C 249.155 179.885,249.153 180.000,249.512 180.000 C 250.223 180.000,250.452 178.544,250.299 174.999 L 250.161 171.800 250.080 175.420 M289.461 173.600 C 289.592 174.370,289.823 179.320,289.974 184.600 L 290.248 194.200 290.197 184.600 C 290.165 178.560,289.974 174.481,289.684 173.600 L 289.222 172.200 289.461 173.600 M105.867 173.067 C 105.720 173.213,105.618 173.888,105.641 174.567 L 105.682 175.800 106.010 174.403 C 106.353 172.947,106.317 172.616,105.867 173.067 M110.075 174.800 C 109.704 176.362,109.591 179.496,109.685 185.600 L 109.817 194.200 109.908 185.074 C 109.964 179.578,110.169 175.631,110.425 175.153 C 110.659 174.716,110.794 173.963,110.724 173.479 C 110.646 172.934,110.400 173.435,110.075 174.800 M247.280 182.080 C 245.658 183.702,246.948 190.084,248.874 189.968 C 249.163 189.951,248.905 189.756,248.300 189.535 C 246.953 189.043,246.593 183.464,247.829 182.229 C 248.174 181.883,248.300 181.600,248.109 181.600 C 247.917 181.600,247.544 181.816,247.280 182.080 M249.530 181.912 C 249.921 182.187,250.026 183.237,249.930 185.924 C 249.858 187.926,249.942 189.420,250.116 189.245 C 250.724 188.634,250.262 181.881,249.600 181.702 C 249.126 181.573,249.111 181.617,249.530 181.912 M247.500 191.957 C 246.343 193.130,246.492 198.809,247.700 199.588 C 249.747 200.906,250.386 199.991,250.394 195.729 C 250.402 191.537,249.313 190.119,247.500 191.957 M250.000 195.800 C 250.000 199.570,249.240 200.791,247.850 199.256 C 246.893 198.198,246.926 192.888,247.894 192.180 C 249.397 191.082,250.000 192.118,250.000 195.800 M162.500 193.900 C 174.105 193.959,193.095 193.959,204.700 193.900 C 216.305 193.841,206.810 193.793,183.600 193.793 C 160.390 193.793,150.895 193.841,162.500 193.900 M111.000 194.183 C 111.220 194.249,112.210 194.537,113.200 194.823 C 114.190 195.110,115.229 195.517,115.510 195.729 C 115.790 195.941,116.128 196.005,116.261 195.872 C 116.394 195.739,115.985 195.424,115.352 195.172 C 114.718 194.920,113.887 194.553,113.505 194.357 C 113.123 194.161,112.313 194.014,111.705 194.032 C 111.097 194.049,110.780 194.117,111.000 194.183 M138.578 195.300 C 136.332 197.778,136.400 197.171,136.400 214.771 C 136.400 223.781,136.535 231.236,136.700 231.338 C 136.865 231.441,136.947 224.217,136.883 215.287 C 136.750 196.876,136.931 195.734,140.200 194.382 C 140.762 194.149,140.815 194.043,140.378 194.025 C 140.037 194.011,139.227 194.585,138.578 195.300 M227.299 194.578 C 227.903 194.893,228.623 195.279,228.899 195.435 C 229.174 195.590,229.003 195.331,228.517 194.859 C 228.031 194.386,227.311 194.001,226.917 194.002 C 226.404 194.004,226.512 194.168,227.299 194.578 M286.200 194.652 C 284.935 195.270,285.160 195.243,288.200 194.411 C 289.293 194.111,289.311 194.081,288.400 194.073 C 287.850 194.069,286.860 194.329,286.200 194.652 M105.632 196.438 C 105.569 197.692,106.981 198.458,109.058 198.296 L 111.000 198.144 109.071 198.072 C 107.176 198.001,106.357 197.568,105.896 196.393 C 105.700 195.895,105.658 195.902,105.632 196.438 M282.400 196.400 C 282.400 196.620,282.175 196.803,281.900 196.806 C 281.338 196.814,279.598 198.343,277.800 200.409 C 277.087 201.228,277.594 200.898,279.049 199.594 C 280.396 198.387,281.926 197.093,282.449 196.718 C 282.972 196.343,283.175 196.028,282.900 196.018 C 282.625 196.008,282.400 196.180,282.400 196.400 M119.339 198.000 C 120.091 198.660,120.841 199.200,121.007 199.200 C 121.405 199.200,118.693 196.815,118.286 196.806 C 118.113 196.803,118.587 197.340,119.339 198.000 M230.275 197.800 C 230.711 199.410,230.693 229.930,230.255 231.200 C 229.966 232.037,229.999 232.115,230.455 231.680 C 231.242 230.929,231.260 198.596,230.475 197.400 C 230.001 196.679,229.982 196.719,230.275 197.800 M293.616 197.380 C 293.347 197.705,292.225 198.025,291.067 198.106 L 289.000 198.252 291.038 198.326 C 292.630 198.384,293.235 198.225,293.800 197.600 C 294.198 197.160,294.428 196.800,294.311 196.800 C 294.194 196.800,293.881 197.061,293.616 197.380 M141.300 197.870 L 140.400 198.498 140.400 214.372 C 140.400 227.711,140.494 230.371,140.987 231.024 C 141.310 231.451,141.580 231.586,141.587 231.324 C 141.594 231.062,141.420 230.736,141.200 230.600 C 140.944 230.442,140.800 224.617,140.800 214.441 L 140.800 198.528 141.819 198.064 C 143.599 197.253,224.732 197.415,226.011 198.232 L 227.000 198.864 226.056 198.032 C 224.764 196.894,142.924 196.737,141.300 197.870 M113.600 199.360 C 113.600 199.449,114.275 199.902,115.100 200.368 L 116.600 201.216 115.400 200.210 C 114.299 199.287,113.600 198.957,113.600 199.360 M122.000 200.065 C 122.000 200.289,124.610 204.329,125.037 204.767 C 125.127 204.858,125.194 204.768,125.187 204.567 C 125.172 204.152,122.000 199.671,122.000 200.065 M118.285 202.910 C 119.183 203.960,120.211 205.438,120.570 206.193 C 120.928 206.948,121.391 207.671,121.598 207.799 C 122.528 208.374,119.635 203.815,118.226 202.485 L 116.651 201.000 118.285 202.910 M281.320 203.015 C 279.579 205.093,277.857 207.991,278.175 208.308 C 278.293 208.426,278.661 207.873,278.992 207.080 C 279.324 206.286,280.408 204.639,281.402 203.418 C 282.396 202.198,283.126 201.200,283.025 201.200 C 282.923 201.200,282.156 202.017,281.320 203.015 M247.298 202.062 C 246.377 202.983,246.637 209.085,247.621 209.611 C 249.779 210.766,250.200 210.144,250.200 205.800 L 250.200 201.800 248.998 201.682 C 248.337 201.617,247.572 201.788,247.298 202.062 M250.000 205.800 C 250.000 209.499,249.975 209.600,249.080 209.600 C 247.550 209.600,247.200 208.852,247.200 205.587 C 247.200 202.164,247.276 202.000,248.867 202.000 L 250.000 202.000 250.000 205.800 M275.596 203.206 C 275.124 203.869,274.796 204.584,274.869 204.794 C 274.941 205.004,275.390 204.461,275.867 203.588 C 276.898 201.698,276.784 201.537,275.596 203.206 M143.476 203.058 C 142.975 203.558,143.171 204.121,143.700 203.704 C 143.988 203.477,147.001 203.329,150.800 203.355 L 157.400 203.400 157.523 204.881 L 157.646 206.362 154.923 206.481 L 152.200 206.600 152.093 216.300 L 151.986 226.000 150.600 226.000 L 149.214 226.000 149.096 216.500 L 148.977 207.000 148.989 216.600 L 149.000 226.200 150.600 226.200 L 152.200 226.200 152.307 216.518 L 152.414 206.836 155.107 206.718 L 157.800 206.600 157.800 204.800 L 157.800 203.000 150.776 202.891 C 146.912 202.831,143.627 202.906,143.476 203.058 M159.401 203.677 C 159.277 204.184,159.226 209.460,159.288 215.400 L 159.400 226.200 161.000 226.200 L 162.600 226.200 162.600 214.600 L 162.600 203.000 161.113 202.877 C 159.843 202.771,159.594 202.887,159.401 203.677 M171.800 203.200 C 171.508 203.673,171.899 203.673,173.000 203.200 C 173.771 202.869,173.769 202.855,172.924 202.828 C 172.442 202.813,171.936 202.980,171.800 203.200 M177.400 203.200 C 178.501 203.673,178.892 203.673,178.600 203.200 C 178.464 202.980,177.958 202.813,177.476 202.828 C 176.631 202.855,176.629 202.869,177.400 203.200 M182.480 203.280 C 181.796 203.964,181.796 225.236,182.480 225.920 C 184.658 228.098,186.021 225.959,185.916 220.526 L 185.833 216.200 185.717 220.200 C 185.556 225.784,185.462 226.077,183.886 225.924 L 182.600 225.800 182.493 215.049 C 182.386 204.218,182.500 203.200,183.820 203.200 C 185.195 203.200,185.600 204.391,185.600 208.429 C 185.600 210.613,185.735 212.400,185.900 212.400 C 186.321 212.401,186.001 204.352,185.546 203.500 C 185.115 202.693,183.204 202.556,182.480 203.280 M191.548 203.900 C 190.997 204.505,190.238 205.540,189.861 206.200 L 189.176 207.400 190.088 206.219 C 191.826 203.968,192.769 203.200,193.794 203.200 C 195.498 203.200,195.398 204.215,193.441 206.788 C 192.432 208.114,191.740 209.198,191.903 209.195 C 192.228 209.190,195.250 205.006,195.645 204.015 C 196.279 202.427,192.974 202.335,191.548 203.900 M197.429 203.429 C 196.361 204.496,196.496 225.409,197.574 225.986 C 198.454 226.457,208.254 226.559,208.539 226.100 C 208.641 225.935,206.267 225.800,203.262 225.800 L 197.800 225.800 197.694 214.709 L 197.587 203.618 198.530 203.382 C 200.357 202.923,207.642 203.422,208.028 204.032 C 209.080 205.694,208.087 206.308,204.259 206.361 C 202.531 206.385,200.956 206.504,200.759 206.626 C 200.327 206.892,200.271 212.400,200.700 212.401 C 200.865 212.401,201.000 211.186,201.000 209.701 L 201.000 207.000 204.400 206.889 C 207.936 206.773,208.800 206.354,208.800 204.752 C 208.800 203.132,207.780 202.800,202.800 202.800 C 199.022 202.800,197.929 202.928,197.429 203.429 M209.600 203.100 C 209.600 203.265,212.795 203.400,216.700 203.400 L 223.800 203.400 223.800 204.800 L 223.800 206.200 221.100 206.318 C 219.615 206.383,218.400 206.563,218.399 206.718 C 218.399 206.873,219.704 206.910,221.299 206.800 C 224.443 206.583,224.833 206.178,224.226 203.759 L 223.985 202.800 216.792 202.800 C 212.837 202.800,209.600 202.935,209.600 203.100 M162.306 214.700 L 162.412 226.000 161.006 226.000 L 159.600 226.000 159.600 214.867 C 159.600 203.100,159.600 203.097,161.185 203.282 L 162.200 203.400 162.306 214.700 M169.749 204.115 C 169.501 204.382,168.826 204.940,168.249 205.356 C 167.672 205.772,167.200 206.301,167.200 206.531 C 167.200 206.761,167.695 206.494,168.300 205.936 C 168.905 205.379,169.845 204.625,170.389 204.261 C 170.971 203.872,171.136 203.606,170.789 203.615 C 170.465 203.624,169.997 203.849,169.749 204.115 M126.033 207.691 C 126.455 208.845,126.827 210.421,126.860 211.194 C 126.916 212.506,126.931 212.522,127.093 211.431 C 127.271 210.235,126.189 206.164,125.596 205.798 C 125.415 205.686,125.612 206.538,126.033 207.691 M274.249 205.921 C 273.535 207.076,272.819 210.108,272.861 211.800 L 272.909 213.800 273.202 211.400 C 273.364 210.080,273.768 208.235,274.101 207.300 C 274.662 205.725,274.723 205.153,274.249 205.921 M143.559 206.521 C 143.736 206.697,145.033 206.785,146.441 206.716 L 149.000 206.591 146.118 206.395 C 144.533 206.288,143.381 206.344,143.559 206.521 M209.600 206.500 C 209.600 206.665,210.905 206.775,212.500 206.746 C 215.554 206.688,215.221 206.509,211.700 206.316 C 210.545 206.252,209.600 206.335,209.600 206.500 M170.400 207.800 C 169.883 208.350,169.590 208.800,169.748 208.800 C 169.907 208.800,170.486 208.350,171.036 207.800 C 171.586 207.250,171.880 206.800,171.688 206.800 C 171.496 206.800,170.917 207.250,170.400 207.800 M165.836 208.826 C 164.859 211.041,165.192 211.146,166.258 208.960 C 166.730 207.992,166.990 207.200,166.835 207.200 C 166.681 207.200,166.231 207.932,165.836 208.826 M187.600 209.400 C 186.919 210.390,186.452 211.200,186.562 211.200 C 186.672 211.200,187.319 210.390,188.000 209.400 C 188.681 208.410,189.148 207.600,189.038 207.600 C 188.928 207.600,188.281 208.410,187.600 209.400 M168.885 210.173 C 168.186 211.708,168.292 212.417,169.013 211.033 C 169.348 210.391,169.565 209.696,169.496 209.488 C 169.427 209.280,169.152 209.588,168.885 210.173 M190.419 210.905 L 189.495 212.200 190.626 211.112 C 191.249 210.514,191.664 209.931,191.550 209.817 C 191.436 209.703,190.927 210.193,190.419 210.905 M249.100 211.688 C 249.933 212.090,250.000 212.386,250.000 215.674 C 250.000 219.427,249.550 220.267,248.046 219.321 C 247.283 218.842,246.853 212.400,247.584 212.400 C 247.813 212.400,248.000 212.198,248.000 211.951 C 248.000 211.641,247.815 211.656,247.400 212.000 C 245.210 213.818,247.291 221.332,249.547 219.752 C 251.459 218.413,250.578 211.057,248.526 211.227 C 248.347 211.242,248.605 211.449,249.100 211.688 M122.940 214.800 C 122.940 216.670,123.009 217.435,123.093 216.500 C 123.177 215.565,123.177 214.035,123.093 213.100 C 123.009 212.165,122.940 212.930,122.940 214.800 M276.931 214.600 C 276.933 216.140,277.005 216.721,277.092 215.891 C 277.179 215.061,277.177 213.801,277.089 213.091 C 277.000 212.381,276.929 213.060,276.931 214.600 M207.400 214.000 C 207.400 214.880,207.535 215.600,207.700 215.600 C 207.865 215.600,208.000 214.880,208.000 214.000 C 208.000 213.120,207.865 212.400,207.700 212.400 C 207.535 212.400,207.400 213.120,207.400 214.000 M164.924 215.000 C 164.926 216.320,165.001 216.812,165.090 216.093 C 165.179 215.374,165.177 214.294,165.086 213.693 C 164.995 213.092,164.922 213.680,164.924 215.000 M189.600 214.221 C 189.600 214.343,190.050 215.105,190.600 215.914 C 191.816 217.703,191.919 217.387,190.760 215.423 C 189.974 214.090,189.600 213.703,189.600 214.221 M272.863 217.125 C 272.803 219.140,273.747 222.997,274.399 223.399 C 274.565 223.502,274.420 222.825,274.076 221.893 C 273.733 220.962,273.333 219.030,273.189 217.600 L 272.926 215.000 272.863 217.125 M186.564 216.093 C 186.403 216.372,186.418 216.468,186.596 216.306 C 186.775 216.144,187.131 216.414,187.388 216.906 C 188.116 218.298,189.845 221.362,190.870 223.075 C 191.381 223.931,191.998 224.983,192.241 225.415 C 192.732 226.291,195.427 226.733,196.109 226.051 C 196.534 225.626,195.550 223.064,194.779 222.587 C 194.560 222.452,194.745 222.989,195.190 223.782 C 196.265 225.696,196.216 226.000,194.833 226.000 C 193.461 226.000,192.400 225.647,192.400 225.190 C 192.400 225.011,191.320 223.036,190.000 220.800 C 188.680 218.564,187.600 216.580,187.600 216.391 C 187.600 215.782,186.865 215.571,186.564 216.093 M200.464 219.300 C 200.529 223.062,200.688 222.614,200.889 218.099 C 200.950 216.724,200.865 215.599,200.700 215.599 C 200.535 215.600,200.429 217.265,200.464 219.300 M126.854 218.172 C 126.797 219.410,126.157 221.703,125.523 222.939 C 125.315 223.345,125.217 223.750,125.305 223.838 C 125.801 224.334,127.339 219.291,127.093 217.979 C 126.926 217.093,126.904 217.111,126.854 218.172 M168.428 217.800 C 168.427 218.240,168.690 218.949,169.013 219.376 C 169.756 220.359,169.757 220.053,169.016 218.346 C 168.611 217.414,168.430 217.246,168.428 217.800 M165.202 219.105 C 165.201 219.383,165.367 219.923,165.571 220.305 C 165.775 220.687,166.039 221.315,166.158 221.700 C 166.277 222.085,166.606 222.386,166.887 222.368 C 167.289 222.344,167.292 222.293,166.900 222.135 C 166.625 222.024,166.400 221.699,166.400 221.412 C 166.400 221.126,166.131 220.376,165.802 219.746 C 165.474 219.116,165.204 218.827,165.202 219.105 M192.425 219.000 C 192.425 219.220,192.690 219.749,193.013 220.176 C 193.336 220.604,193.600 220.773,193.600 220.553 C 193.600 220.333,193.336 219.804,193.013 219.376 C 192.690 218.949,192.425 218.780,192.425 219.000 M170.967 221.771 C 172.458 223.132,172.659 223.196,175.167 223.123 L 177.800 223.046 175.200 222.904 C 173.051 222.787,172.322 222.553,171.000 221.553 L 169.400 220.342 170.967 221.771 M120.862 222.462 C 120.377 223.370,120.042 224.176,120.118 224.252 C 120.195 224.328,120.654 223.647,121.138 222.738 C 121.623 221.830,121.958 221.024,121.882 220.948 C 121.805 220.872,121.346 221.553,120.862 222.462 M278.000 220.962 C 278.000 221.296,279.748 224.385,279.869 224.265 C 280.035 224.099,278.437 220.800,278.191 220.800 C 278.086 220.800,278.000 220.873,278.000 220.962 M178.214 222.378 C 178.064 222.620,178.292 222.800,178.747 222.800 C 179.184 222.800,179.633 223.115,179.745 223.500 C 179.863 223.906,179.917 223.782,179.874 223.204 C 179.797 222.174,178.683 221.619,178.214 222.378 M247.067 222.267 C 246.127 223.207,247.014 230.000,248.076 230.000 C 248.322 230.000,248.212 229.655,247.830 229.234 C 247.266 228.610,247.161 227.866,247.268 225.233 C 247.341 223.454,247.385 221.999,247.367 221.999 C 247.348 222.000,247.213 222.120,247.067 222.267 M250.080 225.420 C 250.032 227.599,249.809 229.231,249.520 229.520 C 249.155 229.885,249.153 230.000,249.512 230.000 C 250.223 230.000,250.452 228.544,250.299 224.999 L 250.161 221.800 250.080 225.420 M167.656 223.541 C 167.910 223.948,168.497 224.511,168.959 224.791 C 169.548 225.147,169.448 224.925,168.625 224.050 C 167.288 222.627,166.986 222.469,167.656 223.541 M203.113 223.095 C 204.276 223.176,206.076 223.176,207.113 223.093 C 208.151 223.011,207.200 222.945,205.000 222.946 C 202.800 222.947,201.951 223.014,203.113 223.095 M274.800 224.533 C 274.800 224.900,274.980 225.200,275.200 225.200 C 275.420 225.200,275.600 225.448,275.600 225.751 C 275.600 226.054,275.887 226.541,276.239 226.832 C 276.684 227.202,276.611 226.884,275.996 225.781 C 274.896 223.809,274.800 223.709,274.800 224.533 M117.422 226.860 C 116.333 227.927,115.613 228.792,115.822 228.783 C 116.030 228.774,117.100 227.875,118.200 226.787 C 119.300 225.698,120.020 224.833,119.800 224.864 C 119.580 224.895,118.510 225.794,117.422 226.860 M178.880 225.429 C 177.912 226.107,172.201 226.108,170.600 225.431 L 169.800 225.092 170.600 225.733 C 171.863 226.746,177.999 226.661,179.256 225.613 C 180.389 224.669,180.140 224.546,178.880 225.429 M281.097 226.042 C 281.704 226.724,282.740 227.658,283.400 228.117 C 284.106 228.607,283.744 228.096,282.523 226.875 C 280.242 224.597,279.350 224.076,281.097 226.042 M215.462 226.100 C 215.564 226.265,216.166 226.400,216.800 226.400 C 217.434 226.400,218.036 226.265,218.138 226.100 C 218.240 225.935,217.638 225.800,216.800 225.800 C 215.962 225.800,215.360 225.935,215.462 226.100 M122.070 228.526 C 121.591 229.035,121.200 229.588,121.200 229.754 C 121.200 230.069,121.803 229.502,122.749 228.298 C 123.543 227.289,123.089 227.440,122.070 228.526 M278.400 229.344 C 279.390 230.400,280.740 231.640,281.400 232.097 C 282.790 233.061,282.679 232.944,279.200 229.784 C 276.889 227.685,276.800 227.636,278.400 229.344 M112.629 229.953 C 112.509 230.147,111.241 230.431,109.810 230.584 C 108.379 230.737,107.127 230.995,107.027 231.157 C 106.760 231.588,112.467 230.629,113.404 230.086 C 114.074 229.697,114.093 229.622,113.524 229.612 C 113.152 229.605,112.749 229.759,112.629 229.953 M286.861 230.159 C 287.445 230.463,289.040 230.842,290.406 231.001 C 292.007 231.186,293.157 231.557,293.644 232.044 C 294.119 232.519,294.400 232.612,294.400 232.296 C 294.400 231.445,293.056 230.891,290.263 230.592 C 288.792 230.434,287.491 230.147,287.371 229.953 C 287.251 229.759,286.848 229.601,286.476 229.602 C 286.025 229.604,286.152 229.789,286.861 230.159 M119.000 231.409 C 118.120 232.168,117.547 232.791,117.727 232.794 C 117.906 232.797,118.716 232.172,119.527 231.403 C 121.417 229.612,121.081 229.616,119.000 231.409 M247.280 232.080 C 245.658 233.702,246.948 240.084,248.874 239.968 C 249.163 239.951,248.905 239.756,248.300 239.535 C 246.953 239.043,246.593 233.464,247.829 232.229 C 248.174 231.883,248.300 231.600,248.109 231.600 C 247.917 231.600,247.544 231.816,247.280 232.080 M249.530 231.912 C 249.921 232.187,250.026 233.237,249.930 235.924 C 249.858 237.926,249.942 239.420,250.116 239.245 C 250.724 238.634,250.262 231.881,249.600 231.702 C 249.126 231.573,249.111 231.617,249.530 231.912 M137.200 232.258 C 137.200 232.474,137.785 233.179,138.500 233.825 L 139.800 235.000 138.600 233.602 C 137.940 232.833,137.355 232.128,137.300 232.035 C 137.245 231.943,137.200 232.043,137.200 232.258 M228.675 233.646 C 228.056 234.281,227.710 234.800,227.905 234.800 C 228.344 234.800,230.201 232.863,229.968 232.647 C 229.876 232.562,229.294 233.011,228.675 233.646 M115.600 233.433 C 115.042 233.743,114.865 233.985,115.200 233.981 C 115.530 233.978,116.149 233.710,116.576 233.387 C 117.539 232.659,116.945 232.687,115.600 233.433 M283.424 233.387 C 283.851 233.710,284.470 233.979,284.800 233.985 C 285.130 233.990,284.884 233.726,284.254 233.398 C 282.795 232.637,282.425 232.632,283.424 233.387 M110.080 235.280 C 109.322 236.038,109.431 252.456,110.210 254.800 C 110.685 256.230,110.754 256.312,110.545 255.200 C 110.400 254.430,110.212 249.735,110.127 244.767 L 109.972 235.735 110.886 235.294 C 111.481 235.008,111.584 234.845,111.180 234.827 C 110.839 234.812,110.344 235.016,110.080 235.280 M140.754 235.314 C 141.526 236.086,226.161 236.014,226.880 235.241 C 227.318 234.771,227.274 234.739,226.600 235.041 C 225.472 235.547,143.497 235.720,141.686 235.220 C 140.573 234.912,140.373 234.933,140.754 235.314 M289.120 235.297 L 290.040 235.740 289.882 244.970 C 289.795 250.047,289.599 254.740,289.446 255.400 C 289.264 256.184,289.379 256.046,289.778 255.000 C 290.257 253.743,290.389 251.508,290.394 244.580 C 290.400 235.554,290.273 234.764,288.820 234.827 C 288.418 234.845,288.524 235.010,289.120 235.297 M247.700 241.870 C 245.488 243.413,246.796 250.539,249.200 250.044 C 250.196 249.838,250.387 249.146,250.394 245.729 C 250.402 241.544,249.670 240.496,247.700 241.870 M250.000 245.800 C 250.000 249.570,249.240 250.791,247.850 249.256 C 246.893 248.198,246.926 242.888,247.894 242.180 C 249.397 241.082,250.000 242.118,250.000 245.800 M247.298 252.062 C 245.403 253.957,247.050 260.320,249.321 259.880 C 250.084 259.732,250.061 259.702,249.149 259.654 C 247.486 259.568,247.153 258.799,247.282 255.338 L 247.400 252.200 248.685 252.076 L 249.969 251.952 250.107 255.476 L 250.245 259.000 250.222 255.400 L 250.200 251.800 248.998 251.682 C 248.337 251.617,247.572 251.788,247.298 252.062 M105.624 254.406 C 105.600 255.427,106.706 258.811,107.526 260.225 C 108.126 261.260,108.129 260.587,107.529 259.474 C 107.270 258.993,106.741 257.430,106.353 256.000 C 105.965 254.570,105.637 253.853,105.624 254.406 M293.331 257.132 C 292.853 258.597,292.507 259.841,292.563 259.897 C 292.728 260.062,293.469 258.333,294.019 256.498 C 294.855 253.711,294.273 254.247,293.331 257.132 M110.800 257.021 C 110.800 257.143,111.250 257.905,111.800 258.714 C 113.016 260.503,113.119 260.187,111.960 258.223 C 111.174 256.890,110.800 256.503,110.800 257.021 M287.600 259.000 C 287.317 259.341,287.176 259.709,287.286 259.819 C 287.396 259.929,287.717 259.741,288.000 259.400 C 288.283 259.059,288.424 258.691,288.314 258.581 C 288.204 258.471,287.883 258.659,287.600 259.000 M113.200 260.546 C 113.200 260.656,113.740 261.130,114.400 261.600 C 115.060 262.070,115.600 262.364,115.600 262.254 C 115.600 262.144,115.060 261.670,114.400 261.200 C 113.740 260.730,113.200 260.436,113.200 260.546 M285.400 261.388 C 284.740 261.929,284.394 262.378,284.630 262.386 C 284.867 262.394,285.483 261.950,286.000 261.400 C 287.194 260.129,286.942 260.124,285.400 261.388 M108.408 261.486 C 108.421 262.044,110.960 264.638,112.400 265.567 C 113.699 266.404,113.731 266.408,112.836 265.619 C 112.306 265.151,111.675 264.640,111.435 264.484 C 111.195 264.328,110.414 263.519,109.699 262.686 C 108.985 261.853,108.403 261.313,108.408 261.486 M249.068 261.674 C 249.546 261.905,250.045 262.523,250.176 263.047 L 250.415 264.000 265.108 263.977 C 273.188 263.964,280.505 263.829,281.367 263.677 C 282.228 263.525,275.704 263.458,266.867 263.528 L 250.802 263.657 250.432 262.683 C 250.228 262.147,249.763 261.595,249.398 261.455 C 248.349 261.052,248.110 261.211,249.068 261.674 M247.273 262.087 C 247.013 262.347,246.800 262.797,246.800 263.087 C 246.800 263.895,118.028 263.653,117.052 262.843 C 116.683 262.537,116.280 262.387,116.156 262.511 C 114.921 263.745,117.491 263.799,182.249 263.907 L 246.699 264.014 247.381 262.972 C 248.115 261.853,248.049 261.311,247.273 262.087 M288.344 264.787 C 287.825 265.219,287.543 265.579,287.717 265.587 C 287.891 265.594,288.420 265.240,288.892 264.800 C 289.999 263.769,289.579 263.758,288.344 264.787 M114.624 266.987 C 115.051 267.310,115.760 267.573,116.200 267.572 C 116.754 267.570,116.586 267.389,115.654 266.984 C 113.947 266.243,113.641 266.244,114.624 266.987 M285.000 266.800 C 284.864 267.020,284.358 267.221,283.876 267.246 C 283.211 267.282,283.167 267.337,283.693 267.474 C 284.073 267.574,284.789 267.373,285.282 267.028 C 285.775 266.683,285.969 266.400,285.713 266.400 C 285.457 266.400,285.136 266.580,285.000 266.800 M117.862 268.100 C 117.964 268.265,154.926 268.400,200.000 268.400 C 245.074 268.400,282.036 268.265,282.138 268.100 C 282.240 267.935,245.278 267.800,200.000 267.800 C 154.722 267.800,117.760 267.935,117.862 268.100 " stroke="none" fill="#9c9c9c" fill-rule="evenodd"></path><path id="path3" d="M155.900 161.500 C 175.975 161.557,208.825 161.557,228.900 161.500 C 248.975 161.443,232.550 161.396,192.400 161.396 C 152.250 161.396,135.825 161.443,155.900 161.500 M274.500 161.494 C 275.545 161.576,277.255 161.576,278.300 161.494 C 279.345 161.412,278.490 161.344,276.400 161.344 C 274.310 161.344,273.455 161.412,274.500 161.494 M109.701 164.200 C 109.705 165.080,109.787 165.393,109.883 164.895 C 109.979 164.398,109.975 163.678,109.875 163.295 C 109.775 162.913,109.696 163.320,109.701 164.200 M105.774 185.800 C 105.775 191.520,105.831 193.804,105.899 190.876 C 105.968 187.948,105.967 183.268,105.899 180.476 C 105.830 177.684,105.774 180.080,105.774 185.800 M230.582 214.600 C 230.582 223.180,230.635 226.633,230.700 222.274 C 230.764 217.914,230.764 210.894,230.699 206.674 C 230.635 202.453,230.582 206.020,230.582 214.600 M226.901 201.000 C 226.905 201.880,226.987 202.193,227.083 201.695 C 227.179 201.198,227.175 200.478,227.075 200.095 C 226.975 199.713,226.896 200.120,226.901 201.000 M174.300 203.082 C 174.795 203.178,175.605 203.178,176.100 203.082 C 176.595 202.987,176.190 202.909,175.200 202.909 C 174.210 202.909,173.805 202.987,174.300 203.082 M144.705 203.483 C 145.202 203.579,145.922 203.575,146.305 203.475 C 146.687 203.375,146.280 203.296,145.400 203.301 C 144.520 203.305,144.207 203.387,144.705 203.483 M149.105 203.483 C 149.602 203.579,150.322 203.575,150.705 203.475 C 151.087 203.375,150.680 203.296,149.800 203.301 C 148.920 203.305,148.607 203.387,149.105 203.483 M153.500 203.489 C 154.215 203.578,155.385 203.578,156.100 203.489 C 156.815 203.401,156.230 203.328,154.800 203.328 C 153.370 203.328,152.785 203.401,153.500 203.489 M159.845 203.528 C 159.733 203.708,160.173 203.777,160.821 203.682 C 161.470 203.587,162.000 203.440,162.000 203.355 C 162.000 203.050,160.043 203.207,159.845 203.528 M199.911 203.493 C 200.851 203.578,202.291 203.577,203.111 203.491 C 203.930 203.405,203.160 203.336,201.400 203.337 C 199.640 203.339,198.970 203.409,199.911 203.493 M209.857 203.507 C 209.753 203.676,210.372 203.748,211.234 203.665 C 212.095 203.583,212.800 203.445,212.800 203.358 C 212.800 203.060,210.047 203.200,209.857 203.507 M219.111 203.493 C 220.051 203.578,221.491 203.577,222.311 203.491 C 223.130 203.405,222.360 203.336,220.600 203.337 C 218.840 203.339,218.170 203.409,219.111 203.493 M185.348 208.400 C 185.348 210.710,185.414 211.655,185.495 210.500 C 185.576 209.345,185.576 207.455,185.495 206.300 C 185.414 205.145,185.348 206.090,185.348 208.400 M207.916 205.079 C 207.768 205.643,207.297 205.997,206.546 206.109 C 205.418 206.277,205.417 206.281,206.451 206.340 C 207.584 206.405,208.580 205.539,208.308 204.724 C 208.214 204.443,208.041 204.601,207.916 205.079 M143.559 206.121 C 143.736 206.297,145.033 206.385,146.441 206.316 L 149.000 206.191 146.118 205.995 C 144.533 205.888,143.381 205.944,143.559 206.121 M152.262 206.300 C 152.160 206.465,152.914 206.546,153.938 206.480 C 156.859 206.293,157.214 206.097,154.724 206.046 C 153.472 206.021,152.364 206.135,152.262 206.300 M202.100 206.287 C 202.705 206.378,203.695 206.378,204.300 206.287 C 204.905 206.195,204.410 206.120,203.200 206.120 C 201.990 206.120,201.495 206.195,202.100 206.287 M211.700 206.287 C 212.305 206.378,213.295 206.378,213.900 206.287 C 214.505 206.195,214.010 206.120,212.800 206.120 C 211.590 206.120,211.095 206.195,211.700 206.287 M219.900 206.289 C 220.615 206.378,221.785 206.378,222.500 206.289 C 223.215 206.201,222.630 206.128,221.200 206.128 C 219.770 206.128,219.185 206.201,219.900 206.289 M215.372 216.400 C 215.372 221.570,215.429 223.685,215.499 221.100 C 215.568 218.515,215.568 214.285,215.499 211.700 C 215.429 209.115,215.372 211.230,215.372 216.400 M226.968 215.400 C 226.968 219.800,227.026 221.655,227.098 219.521 C 227.170 217.388,227.170 213.788,227.099 211.521 C 227.027 209.255,226.968 211.000,226.968 215.400 M126.928 214.800 C 126.928 216.230,127.001 216.815,127.089 216.100 C 127.178 215.385,127.178 214.215,127.089 213.500 C 127.001 212.785,126.928 213.370,126.928 214.800 M202.711 212.693 C 203.651 212.778,205.091 212.777,205.911 212.691 C 206.730 212.605,205.960 212.536,204.200 212.537 C 202.440 212.539,201.770 212.609,202.711 212.693 M202.500 215.491 C 203.325 215.578,204.675 215.578,205.500 215.491 C 206.325 215.405,205.650 215.334,204.000 215.334 C 202.350 215.334,201.675 215.405,202.500 215.491 M185.346 221.400 C 185.347 223.600,185.414 224.449,185.495 223.287 C 185.576 222.124,185.576 220.324,185.493 219.287 C 185.411 218.249,185.345 219.200,185.346 221.400 M105.774 243.400 C 105.775 249.120,105.831 251.404,105.899 248.476 C 105.968 245.548,105.967 240.868,105.899 238.076 C 105.830 235.284,105.774 237.680,105.774 243.400 M163.131 235.500 C 174.642 235.559,193.362 235.559,204.731 235.500 C 216.099 235.441,206.680 235.393,183.800 235.393 C 160.920 235.393,151.619 235.441,163.131 235.500 " stroke="none" fill="#7c7c7c" fill-rule="evenodd"></path><path id="path4" d="M259.505 108.683 C 260.002 108.779,260.722 108.775,261.105 108.675 C 261.487 108.575,261.080 108.496,260.200 108.501 C 259.320 108.505,259.007 108.587,259.505 108.683 M252.200 110.214 C 250.613 110.941,251.380 110.939,253.400 110.212 C 254.280 109.895,254.640 109.642,254.200 109.650 C 253.760 109.658,252.860 109.912,252.200 110.214 M245.600 112.225 C 244.709 112.562,244.491 112.758,245.000 112.763 C 245.440 112.768,246.250 112.514,246.800 112.200 C 248.022 111.501,247.483 111.513,245.600 112.225 M268.800 111.725 C 268.800 111.794,269.385 112.379,270.100 113.025 L 271.400 114.200 270.225 112.900 C 269.130 111.688,268.800 111.416,268.800 111.725 M259.700 112.276 C 260.085 112.376,260.715 112.376,261.100 112.276 C 261.485 112.175,261.170 112.093,260.400 112.093 C 259.630 112.093,259.315 112.175,259.700 112.276 M266.800 115.000 C 267.546 115.770,268.247 116.400,268.357 116.400 C 268.467 116.400,267.946 115.770,267.200 115.000 C 266.454 114.230,265.753 113.600,265.643 113.600 C 265.533 113.600,266.054 114.230,266.800 115.000 M246.000 115.825 C 245.230 116.116,244.894 116.365,245.254 116.377 C 245.614 116.390,246.514 116.137,247.254 115.816 C 248.920 115.092,247.916 115.100,246.000 115.825 M230.000 117.025 C 229.109 117.362,228.891 117.558,229.400 117.563 C 229.840 117.568,230.650 117.314,231.200 117.000 C 232.422 116.301,231.883 116.313,230.000 117.025 M207.600 123.825 C 206.709 124.162,206.491 124.358,207.000 124.363 C 207.440 124.368,208.250 124.114,208.800 123.800 C 210.022 123.101,209.483 123.113,207.600 123.825 M198.000 126.800 C 197.176 127.064,197.141 127.126,197.800 127.154 C 198.240 127.173,198.870 127.013,199.200 126.800 C 199.901 126.347,199.414 126.347,198.000 126.800 M189.600 129.400 C 188.322 130.130,188.596 130.134,190.600 129.412 C 191.480 129.095,191.840 128.834,191.400 128.832 C 190.960 128.830,190.150 129.086,189.600 129.400 M198.800 130.225 C 198.030 130.516,197.670 130.762,198.000 130.771 C 198.330 130.781,199.320 130.529,200.200 130.212 C 201.080 129.895,201.440 129.649,201.000 129.665 C 200.560 129.682,199.570 129.934,198.800 130.225 M182.800 131.425 C 182.030 131.716,181.670 131.962,182.000 131.971 C 182.330 131.981,183.320 131.729,184.200 131.412 C 185.080 131.095,185.440 130.849,185.000 130.865 C 184.560 130.882,183.570 131.134,182.800 131.425 M273.426 131.400 C 274.052 133.210,274.090 134.099,273.555 134.473 C 273.096 134.794,273.104 134.833,273.600 134.699 C 274.460 134.467,274.556 133.030,273.799 131.723 C 273.442 131.105,273.274 130.960,273.426 131.400 M183.200 135.025 C 182.430 135.316,182.070 135.562,182.400 135.571 C 182.730 135.581,183.720 135.329,184.600 135.012 C 185.480 134.695,185.840 134.449,185.400 134.465 C 184.960 134.482,183.970 134.734,183.200 135.025 M268.800 137.800 C 268.054 138.570,267.613 139.187,267.822 139.171 C 268.182 139.144,270.654 136.400,270.318 136.400 C 270.229 136.400,269.546 137.030,268.800 137.800 M174.400 137.800 C 173.122 138.530,173.396 138.534,175.400 137.812 C 176.280 137.495,176.640 137.234,176.200 137.232 C 175.760 137.230,174.950 137.486,174.400 137.800 M274.624 137.813 C 273.625 138.568,273.995 138.563,275.454 137.802 C 276.084 137.474,276.330 137.210,276.000 137.215 C 275.670 137.221,275.051 137.490,274.624 137.813 M152.000 144.600 C 150.722 145.330,150.996 145.334,153.000 144.612 C 153.880 144.295,154.240 144.034,153.800 144.032 C 153.360 144.030,152.550 144.286,152.000 144.600 M268.389 144.821 C 268.147 145.272,268.006 145.914,268.075 146.246 C 268.144 146.579,268.398 146.209,268.640 145.425 C 269.135 143.823,269.042 143.600,268.389 144.821 M135.800 145.814 C 134.213 146.541,134.980 146.539,137.000 145.812 C 137.880 145.495,138.240 145.242,137.800 145.250 C 137.360 145.258,136.460 145.512,135.800 145.814 M263.789 148.937 C 263.645 149.892,263.688 151.467,263.883 152.437 C 264.193 153.981,264.235 153.765,264.219 150.700 C 264.197 146.712,264.151 146.521,263.789 148.937 M267.443 148.233 C 267.105 149.112,267.150 152.502,267.506 153.062 C 267.668 153.316,267.800 152.191,267.800 150.562 C 267.800 147.331,267.797 147.310,267.443 148.233 M136.200 149.414 C 134.613 150.141,135.380 150.139,137.400 149.412 C 138.280 149.095,138.640 148.842,138.200 148.850 C 137.760 148.858,136.860 149.112,136.200 149.414 M120.200 150.614 C 118.585 151.354,119.551 151.355,121.254 150.616 C 121.994 150.294,122.330 150.039,122.000 150.048 C 121.670 150.057,120.860 150.312,120.200 150.614 M129.800 151.414 C 128.185 152.154,129.151 152.155,130.854 151.416 C 131.594 151.094,131.930 150.839,131.600 150.848 C 131.270 150.857,130.460 151.112,129.800 151.414 M114.539 153.846 L 112.600 155.692 114.400 154.190 C 116.815 152.174,116.999 152.000,116.719 152.000 C 116.586 152.000,115.605 152.831,114.539 153.846 M120.800 154.200 C 119.494 154.947,119.951 154.955,121.654 154.216 C 122.394 153.894,122.730 153.631,122.400 153.630 C 122.070 153.629,121.350 153.886,120.800 154.200 M110.200 161.600 C 110.046 162.510,110.004 163.338,110.107 163.440 C 110.210 163.543,110.413 162.877,110.560 161.960 C 110.707 161.043,110.748 160.215,110.653 160.120 C 110.558 160.024,110.354 160.690,110.200 161.600 M113.852 161.300 C 113.719 161.795,113.608 162.335,113.605 162.500 C 113.596 163.026,115.763 162.794,116.800 162.158 C 117.450 161.759,117.520 161.644,117.000 161.829 C 114.680 162.653,113.946 162.553,114.224 161.448 C 114.368 160.872,114.398 160.400,114.290 160.400 C 114.182 160.400,113.985 160.805,113.852 161.300 M288.000 164.525 C 288.000 164.594,288.585 165.179,289.300 165.825 L 290.600 167.000 289.425 165.700 C 288.330 164.488,288.000 164.216,288.000 164.525 M247.138 166.934 C 247.310 168.815,247.796 169.612,248.749 169.575 C 249.190 169.557,249.109 169.432,248.500 169.188 C 247.778 168.897,247.600 168.511,247.600 167.236 C 247.600 166.362,247.462 165.562,247.293 165.457 C 247.124 165.353,247.054 166.017,247.138 166.934 M284.813 166.700 C 284.819 166.865,285.314 167.346,285.913 167.768 L 287.000 168.536 286.030 167.468 C 285.011 166.346,284.792 166.207,284.813 166.700 M112.975 168.500 L 111.800 169.800 113.100 168.625 C 114.312 167.530,114.584 167.200,114.275 167.200 C 114.206 167.200,113.621 167.785,112.975 168.500 M247.280 175.438 C 247.208 178.357,247.289 178.751,248.100 179.438 C 248.995 180.196,248.996 180.196,248.318 179.389 C 247.835 178.813,247.597 177.653,247.499 175.389 L 247.361 172.200 247.280 175.438 M106.200 173.600 C 106.050 174.073,106.017 174.550,106.127 174.660 C 106.237 174.770,106.450 174.473,106.600 174.000 C 106.750 173.527,106.783 173.050,106.673 172.940 C 106.563 172.830,106.350 173.127,106.200 173.600 M290.570 185.000 C 290.571 189.840,290.629 191.765,290.699 189.278 C 290.769 186.791,290.769 182.831,290.698 180.478 C 290.628 178.125,290.570 180.160,290.570 185.000 M294.173 186.200 C 294.173 191.700,294.230 194.005,294.299 191.323 C 294.368 188.641,294.368 184.141,294.299 181.323 C 294.230 178.505,294.174 180.700,294.173 186.200 M247.862 182.331 C 246.283 184.076,247.145 189.649,248.980 189.560 C 249.666 189.527,249.637 189.475,248.800 189.243 C 247.483 188.879,247.062 183.658,248.244 182.352 C 248.618 181.938,248.834 181.600,248.724 181.600 C 248.614 181.600,248.226 181.929,247.862 182.331 M247.850 192.344 C 246.858 193.441,246.936 198.437,247.960 199.364 C 248.566 199.912,248.782 199.945,249.024 199.526 C 249.192 199.237,249.181 199.133,249.001 199.297 C 248.178 200.042,247.600 198.611,247.600 195.831 C 247.600 192.700,248.048 191.784,249.261 192.433 C 249.668 192.650,250.000 192.738,250.000 192.628 C 250.000 191.897,248.441 191.691,247.850 192.344 M162.731 194.300 C 174.462 194.359,193.542 194.359,205.131 194.300 C 216.719 194.241,207.120 194.193,183.800 194.193 C 160.480 194.193,150.999 194.241,162.731 194.300 M114.946 195.802 C 116.405 196.563,116.775 196.568,115.776 195.813 C 115.349 195.490,114.730 195.221,114.400 195.215 C 114.070 195.210,114.316 195.474,114.946 195.802 M183.561 197.100 C 216.149 197.181,225.463 197.313,225.961 197.702 C 226.527 198.143,226.537 198.120,226.051 197.500 C 225.534 196.840,223.101 196.806,183.651 196.898 L 141.800 196.996 183.561 197.100 M229.916 213.848 C 230.018 228.718,229.953 231.011,229.399 232.126 C 228.790 233.351,228.793 233.372,229.483 232.686 C 230.255 231.917,230.836 199.651,230.112 197.691 C 229.941 197.225,229.852 204.496,229.916 213.848 M118.000 197.346 C 118.000 197.456,118.540 197.930,119.200 198.400 C 119.860 198.870,120.400 199.164,120.400 199.054 C 120.400 198.944,119.860 198.470,119.200 198.000 C 118.540 197.530,118.000 197.236,118.000 197.346 M280.600 198.235 L 279.400 199.266 280.700 198.406 C 281.415 197.933,282.000 197.468,282.000 197.373 C 282.000 197.073,281.831 197.178,280.600 198.235 M137.052 198.900 C 136.734 200.087,136.821 229.056,137.147 230.581 C 137.286 231.231,137.400 224.166,137.400 214.882 C 137.400 205.597,137.376 198.000,137.347 198.000 C 137.317 198.000,137.185 198.405,137.052 198.900 M114.146 199.402 C 115.605 200.163,115.975 200.168,114.976 199.413 C 114.549 199.090,113.930 198.821,113.600 198.815 C 113.270 198.810,113.516 199.074,114.146 199.402 M281.330 202.500 C 280.430 203.435,279.489 204.650,279.239 205.200 C 278.848 206.058,278.856 206.089,279.292 205.422 C 279.571 204.994,280.590 203.779,281.555 202.722 C 283.725 200.345,283.561 200.183,281.330 202.500 M247.680 202.480 C 246.879 203.281,247.052 208.590,247.900 209.232 C 248.496 209.682,248.525 209.678,248.100 209.201 C 247.446 208.467,247.430 203.130,248.080 202.480 C 248.344 202.216,248.470 202.000,248.360 202.000 C 248.250 202.000,247.944 202.216,247.680 202.480 M119.583 203.900 C 120.326 204.835,121.006 205.600,121.094 205.600 C 121.377 205.600,119.663 203.349,118.935 202.764 C 118.548 202.454,118.840 202.965,119.583 203.900 M143.467 203.867 C 143.086 204.247,143.137 205.514,143.542 205.764 C 143.730 205.881,143.800 205.535,143.697 204.997 L 143.510 204.019 150.655 203.900 L 157.800 203.780 150.767 203.690 C 146.898 203.641,143.613 203.720,143.467 203.867 M159.781 204.106 C 159.674 204.385,159.634 209.380,159.693 215.206 L 159.800 225.800 160.967 225.800 C 161.608 225.800,162.180 225.571,162.237 225.290 C 162.293 225.010,162.249 224.965,162.137 225.190 C 162.025 225.416,161.498 225.600,160.967 225.600 L 160.000 225.600 160.000 214.755 L 160.000 203.909 161.200 204.085 C 161.860 204.182,162.400 204.113,162.400 203.931 C 162.400 203.393,159.993 203.554,159.781 204.106 M182.800 203.755 C 182.800 203.840,183.340 203.988,184.000 204.085 C 184.660 204.182,185.200 204.113,185.200 203.931 C 185.200 203.749,184.660 203.600,184.000 203.600 C 183.340 203.600,182.800 203.670,182.800 203.755 M193.399 203.896 C 194.058 203.993,194.730 204.281,194.893 204.536 C 195.084 204.837,195.190 204.754,195.194 204.300 C 195.199 203.746,194.887 203.613,193.700 203.660 C 192.340 203.714,192.312 203.736,193.399 203.896 M197.785 204.094 C 197.676 204.379,197.634 209.380,197.693 215.206 L 197.800 225.800 203.200 225.819 L 208.600 225.838 203.300 225.707 L 198.000 225.577 198.000 214.788 L 198.000 204.000 202.847 204.000 L 207.693 204.000 207.496 205.030 C 207.369 205.696,207.437 205.923,207.687 205.673 C 207.900 205.460,208.011 204.951,207.933 204.542 C 207.750 203.591,198.141 203.166,197.785 204.094 M209.750 204.187 C 209.626 204.510,209.617 205.005,209.731 205.287 C 209.844 205.569,209.951 205.387,209.968 204.882 L 210.000 203.964 217.000 204.082 C 220.851 204.147,224.001 204.065,224.000 203.900 C 223.999 203.270,209.993 203.552,209.750 204.187 M226.914 205.800 C 226.917 206.900,226.995 207.303,227.087 206.695 C 227.179 206.086,227.177 205.186,227.082 204.695 C 226.987 204.203,226.911 204.700,226.914 205.800 M182.590 215.000 L 182.600 225.800 183.702 225.927 C 184.353 226.002,184.877 225.838,184.983 225.527 C 185.295 224.602,185.412 216.854,185.106 217.337 C 184.944 217.591,184.809 219.555,184.806 221.700 C 184.800 225.585,184.796 225.600,183.807 225.600 L 182.813 225.600 182.696 214.900 L 182.580 204.200 182.590 215.000 M124.814 205.254 C 124.806 205.394,125.063 206.114,125.384 206.854 C 125.706 207.594,125.969 207.930,125.970 207.600 C 125.972 207.024,124.843 204.734,124.814 205.254 M184.883 209.087 C 184.801 213.144,184.807 213.172,185.679 212.849 C 186.163 212.670,186.600 212.311,186.649 212.052 C 186.699 211.792,186.649 211.764,186.537 211.990 C 185.789 213.497,185.223 212.202,185.098 208.700 L 184.966 205.000 184.883 209.087 M193.200 206.400 C 192.730 207.060,192.436 207.600,192.546 207.600 C 192.656 207.600,193.130 207.060,193.600 206.400 C 194.070 205.740,194.364 205.200,194.254 205.200 C 194.144 205.200,193.670 205.740,193.200 206.400 M200.657 206.109 C 199.790 206.743,199.836 212.463,200.710 212.638 C 200.990 212.694,201.036 212.649,200.810 212.537 C 200.585 212.425,200.400 211.002,200.400 209.374 C 200.400 205.997,200.266 206.109,204.600 205.879 L 207.000 205.751 204.176 205.676 C 202.410 205.628,201.092 205.791,200.657 206.109 M277.988 207.222 C 277.746 207.674,277.607 208.222,277.680 208.439 C 277.752 208.657,278.018 208.287,278.271 207.617 C 278.797 206.225,278.639 206.005,277.988 207.222 M151.692 216.073 L 151.600 225.547 150.500 225.713 L 149.400 225.880 150.513 225.940 C 152.042 226.022,152.030 226.115,151.900 215.791 L 151.784 206.600 151.692 216.073 M218.092 216.075 L 218.000 225.549 216.700 225.711 L 215.400 225.872 216.713 225.936 C 218.471 226.022,218.432 226.271,218.300 215.791 L 218.184 206.600 218.092 216.075 M168.109 212.400 C 168.109 213.390,168.187 213.795,168.282 213.300 C 168.378 212.805,168.378 211.995,168.282 211.500 C 168.187 211.005,168.109 211.410,168.109 212.400 M247.862 212.331 C 247.172 213.094,246.873 218.549,247.500 218.940 C 247.665 219.042,247.742 217.735,247.672 216.036 C 247.527 212.542,248.124 211.372,249.500 212.451 C 250.134 212.949,250.149 212.934,249.651 212.300 C 248.959 211.417,248.685 211.422,247.862 212.331 M165.334 214.800 C 165.334 216.450,165.405 217.125,165.491 216.300 C 165.578 215.475,165.578 214.125,165.491 213.300 C 165.405 212.475,165.334 213.150,165.334 214.800 M200.267 215.467 C 199.898 215.835,199.929 222.709,200.300 222.940 C 200.465 223.042,200.542 221.497,200.470 219.505 C 200.374 216.821,200.477 215.797,200.870 215.548 C 201.162 215.363,201.205 215.209,200.967 215.206 C 200.728 215.203,200.413 215.320,200.267 215.467 M168.101 217.000 C 168.105 217.880,168.187 218.193,168.283 217.695 C 168.379 217.198,168.375 216.478,168.275 216.095 C 168.175 215.713,168.096 216.120,168.101 217.000 M187.600 216.528 C 187.600 216.701,188.050 217.505,188.600 218.314 C 189.150 219.123,189.600 219.644,189.600 219.472 C 189.600 219.299,189.150 218.495,188.600 217.686 C 188.050 216.877,187.600 216.356,187.600 216.528 M169.837 221.400 C 170.197 221.950,170.650 222.400,170.843 222.400 C 171.037 222.400,170.803 221.950,170.325 221.400 C 169.847 220.850,169.394 220.400,169.319 220.400 C 169.243 220.400,169.476 220.850,169.837 221.400 M166.400 221.060 C 166.400 221.300,167.075 222.206,167.900 223.072 C 168.725 223.938,169.023 224.187,168.561 223.624 C 168.100 223.061,167.425 222.155,167.061 221.611 C 166.698 221.067,166.400 220.819,166.400 221.060 M125.515 221.810 C 125.392 222.245,125.169 222.960,125.020 223.400 C 124.871 223.840,125.042 223.694,125.400 223.076 C 125.758 222.458,125.981 221.742,125.895 221.486 C 125.810 221.230,125.639 221.376,125.515 221.810 M247.280 225.438 C 247.208 228.357,247.289 228.751,248.100 229.438 C 248.995 230.196,248.996 230.196,248.318 229.389 C 247.835 228.813,247.597 227.653,247.499 225.389 L 247.361 222.200 247.280 225.438 M178.623 223.367 C 179.461 223.980,179.840 223.913,179.416 223.227 C 179.271 222.992,178.859 222.800,178.500 222.800 C 177.954 222.800,177.974 222.893,178.623 223.367 M195.350 224.900 C 195.624 225.753,193.701 225.904,192.799 225.100 C 192.322 224.675,192.318 224.704,192.768 225.300 C 193.741 226.586,196.454 226.077,195.536 224.781 C 195.201 224.307,195.166 224.329,195.350 224.900 M118.778 226.250 C 118.020 227.047,116.698 228.217,115.840 228.850 C 114.982 229.482,114.485 230.000,114.736 230.000 C 115.189 230.000,120.803 224.839,120.378 224.813 C 120.257 224.806,119.537 225.452,118.778 226.250 M171.556 225.718 C 171.732 225.893,173.299 225.981,175.038 225.915 L 178.200 225.793 174.718 225.597 C 172.803 225.488,171.380 225.543,171.556 225.718 M123.600 225.919 C 123.600 226.167,122.484 227.592,121.119 229.085 C 119.157 231.232,119.039 231.423,120.552 230.000 C 122.771 227.912,124.193 226.059,123.844 225.710 C 123.710 225.576,123.600 225.670,123.600 225.919 M281.774 227.093 C 282.640 228.024,283.435 228.699,283.541 228.593 C 283.647 228.487,283.656 228.355,283.562 228.300 C 283.468 228.245,282.673 227.570,281.796 226.801 L 280.200 225.401 281.774 227.093 M278.000 228.525 C 278.000 228.594,278.585 229.179,279.300 229.825 L 280.600 231.000 279.425 229.700 C 278.330 228.488,278.000 228.216,278.000 228.525 M140.749 231.300 C 141.267 231.960,143.728 231.994,183.749 231.902 L 226.200 231.804 183.839 231.700 C 150.771 231.619,141.337 231.487,140.839 231.098 C 140.273 230.657,140.263 230.680,140.749 231.300 M247.862 232.331 C 246.283 234.076,247.145 239.649,248.980 239.560 C 249.666 239.527,249.637 239.475,248.800 239.243 C 247.483 238.879,247.062 233.658,248.244 232.352 C 248.618 231.938,248.834 231.600,248.724 231.600 C 248.614 231.600,248.226 231.929,247.862 232.331 M281.600 231.760 C 281.600 231.969,284.363 233.600,284.716 233.600 C 284.864 233.600,284.323 233.150,283.514 232.600 C 282.097 231.637,281.600 231.419,281.600 231.760 M294.128 235.600 C 294.128 237.030,294.201 237.615,294.289 236.900 C 294.378 236.185,294.378 235.015,294.289 234.300 C 294.201 233.585,294.128 234.170,294.128 235.600 M227.660 234.100 C 227.269 234.491,217.786 234.645,184.080 234.807 L 141.000 235.014 184.086 235.007 C 224.581 235.000,227.214 234.958,227.871 234.300 C 228.256 233.915,228.479 233.600,228.366 233.600 C 228.253 233.600,227.935 233.825,227.660 234.100 M290.570 244.400 C 290.570 249.130,290.628 251.065,290.698 248.700 C 290.769 246.335,290.769 242.465,290.698 240.100 C 290.628 237.735,290.570 239.670,290.570 244.400 M294.166 245.600 C 294.166 249.670,294.225 251.335,294.298 249.300 C 294.371 247.265,294.371 243.935,294.298 241.900 C 294.225 239.865,294.166 241.530,294.166 245.600 M247.850 242.344 C 246.858 243.441,246.936 248.437,247.960 249.364 C 248.566 249.912,248.782 249.945,249.024 249.526 C 249.192 249.237,249.181 249.133,249.001 249.297 C 248.178 250.042,247.600 248.611,247.600 245.831 C 247.600 242.700,248.048 241.784,249.261 242.433 C 249.668 242.650,250.000 242.738,250.000 242.628 C 250.000 241.897,248.441 241.691,247.850 242.344 M247.680 252.480 C 246.879 253.281,247.052 258.590,247.900 259.232 C 248.496 259.682,248.525 259.678,248.100 259.201 C 247.446 258.467,247.430 253.130,248.080 252.480 C 248.344 252.216,248.470 252.000,248.360 252.000 C 248.250 252.000,247.944 252.216,247.680 252.480 M106.012 254.800 C 106.012 255.130,106.187 255.670,106.400 256.000 C 106.745 256.533,106.788 256.533,106.788 256.000 C 106.788 255.670,106.613 255.130,106.400 254.800 C 106.055 254.267,106.012 254.267,106.012 254.800 M106.815 257.600 C 106.821 257.930,107.090 258.549,107.413 258.976 C 108.168 259.975,108.163 259.605,107.402 258.146 C 107.074 257.516,106.810 257.270,106.815 257.600 M247.516 262.804 L 246.574 264.007 182.325 263.904 C 146.988 263.847,118.284 263.932,118.538 264.094 C 118.792 264.256,147.800 264.383,183.000 264.377 L 247.000 264.366 247.882 262.983 C 248.967 261.280,248.780 261.188,247.516 262.804 M110.800 263.800 C 111.546 264.570,112.247 265.200,112.357 265.200 C 112.467 265.200,111.946 264.570,111.200 263.800 C 110.454 263.030,109.753 262.400,109.643 262.400 C 109.533 262.400,110.054 263.030,110.800 263.800 M250.262 264.100 C 250.502 264.488,280.852 264.482,281.462 264.094 C 281.716 263.932,274.758 263.800,266.000 263.800 C 257.242 263.800,250.160 263.935,250.262 264.100 M118.476 267.660 C 118.984 267.803,155.670 267.920,200.000 267.920 C 244.330 267.920,281.016 267.803,281.524 267.660 C 282.032 267.517,245.346 267.400,200.000 267.400 C 154.654 267.400,117.968 267.517,118.476 267.660 " stroke="none" fill="#747474" fill-rule="evenodd"></path></g></svg>