<svg id="svg" version="1.1" xmlns="http://www.w3.org/2000/svg" xmlns:xlink="http://www.w3.org/1999/xlink" width="400" height="400" viewBox="0, 0, 400,400"><g id="svgg"><path id="path0" d="M257.692 2.220 C 253.926 3.234,253.264 3.825,231.122 25.913 L 209.245 47.738 210.322 48.290 C 212.084 49.191,218.028 55.273,218.835 57.000 C 221.937 63.640,214.618 70.449,208.058 67.025 C 206.937 66.440,200.524 59.949,199.732 58.598 C 198.947 57.258,3.697 252.737,2.363 256.200 C 1.067 259.563,1.070 264.452,2.370 267.800 C 3.232 270.019,29.218 297.200,30.478 297.200 C 30.646 297.200,32.002 296.318,33.492 295.241 C 60.321 275.833,97.852 289.724,106.330 322.200 C 109.736 335.249,105.619 353.402,97.161 362.622 C 96.412 363.439,96.491 363.526,110.304 377.267 C 126.259 393.139,125.973 392.936,132.445 392.954 C 139.249 392.974,128.624 402.966,238.755 292.965 L 336.200 195.635 332.541 191.918 C 327.368 186.662,326.486 184.153,328.414 180.171 C 331.301 174.207,337.400 174.606,343.730 181.173 L 347.146 184.716 368.473 163.258 C 383.711 147.927,390.105 141.229,390.867 139.800 C 393.293 135.253,393.155 129.734,390.503 125.252 C 389.279 123.181,365.250 98.616,363.326 97.468 C 363.056 97.307,361.109 98.326,358.809 99.833 C 345.932 108.270,330.186 109.909,316.024 104.287 C 288.070 93.190,277.666 59.269,294.593 34.411 C 296.329 31.861,296.721 31.013,296.411 30.480 C 295.229 28.450,270.454 4.405,268.600 3.488 C 264.867 1.643,261.353 1.234,257.692 2.220 M236.000 73.819 C 237.470 74.589,243.807 81.179,244.603 82.764 C 247.602 88.744,240.344 96.002,234.364 93.003 C 232.678 92.157,226.173 85.835,225.307 84.200 C 223.311 80.434,225.940 74.245,229.907 73.371 C 230.508 73.238,231.180 73.066,231.400 72.988 C 232.076 72.747,234.944 73.265,236.000 73.819 M261.320 99.441 C 262.939 100.252,269.448 106.605,270.293 108.200 C 272.290 111.967,269.645 118.187,265.693 119.018 C 265.092 119.145,264.272 119.314,263.872 119.394 C 259.584 120.253,250.400 111.532,250.400 106.603 C 250.400 100.966,256.446 97.001,261.320 99.441 M287.764 125.578 C 290.473 127.252,295.805 133.274,296.372 135.300 C 298.020 141.186,292.527 146.562,286.660 144.806 C 284.599 144.188,277.867 137.793,276.758 135.400 C 273.630 128.644,281.443 121.671,287.764 125.578 M311.455 150.456 C 313.545 150.982,319.311 156.107,321.267 159.178 C 325.270 165.462,318.419 173.217,311.487 170.249 C 309.390 169.351,302.572 162.093,302.048 160.200 C 300.912 156.098,303.176 151.849,307.148 150.626 C 309.480 149.908,309.307 149.915,311.455 150.456 " stroke="none" fill="#147c14" fill-rule="evenodd"></path><path id="path1" d="M0.000 200.000 L 0.000 400.000 200.000 400.000 L 400.000 400.000 400.000 200.000 L 400.000 0.000 200.000 0.000 L 0.000 0.000 0.000 200.000 M268.000 2.749 C 270.374 3.926,297.200 29.765,297.200 30.875 C 297.200 31.029,295.941 33.090,294.401 35.455 C 266.567 78.215,319.240 128.213,360.497 98.193 L 363.000 96.371 377.018 110.485 L 391.037 124.600 392.006 127.400 C 393.544 131.844,393.393 135.452,391.512 139.231 C 390.125 142.020,388.729 143.505,368.516 163.700 L 346.997 185.201 343.398 181.565 C 337.289 175.391,332.943 174.719,329.376 179.396 C 326.530 183.127,327.628 186.832,333.130 192.068 L 336.718 195.483 239.259 292.885 C 185.657 346.456,141.253 390.658,140.584 391.111 C 136.087 394.157,129.569 394.277,124.597 391.406 C 123.716 390.897,116.922 384.425,109.499 377.025 L 96.004 363.569 98.151 360.485 C 112.103 340.442,109.825 315.984,92.478 299.567 C 75.674 283.664,47.168 282.579,31.365 297.243 L 30.530 298.017 17.091 284.611 C 1.163 268.721,1.000 268.492,1.000 262.000 C 1.000 254.901,-9.317 265.885,101.410 155.095 C 155.228 101.247,199.426 57.293,199.630 57.419 C 199.833 57.544,200.000 57.897,200.000 58.203 C 200.000 59.055,207.577 66.380,209.129 67.028 C 214.892 69.436,221.034 63.163,218.605 57.349 C 217.852 55.547,212.747 50.245,210.484 48.914 L 208.768 47.905 210.932 45.653 C 218.402 37.873,252.484 4.188,253.598 3.482 C 257.866 0.780,263.453 0.496,268.000 2.749 M228.938 74.372 C 225.363 75.996,223.983 80.866,226.088 84.434 C 231.474 93.562,240.647 95.841,244.152 88.920 C 245.762 85.741,244.830 82.945,240.761 78.743 C 235.645 73.461,233.055 72.503,228.938 74.372 M255.800 99.466 C 249.689 101.110,249.253 108.048,254.895 113.876 C 259.803 118.947,263.032 120.070,266.728 117.992 C 271.923 115.072,271.943 110.561,266.787 104.809 C 262.350 99.861,259.495 98.473,255.800 99.466 M281.462 125.383 C 274.780 127.766,274.797 133.921,281.503 140.483 C 286.660 145.529,290.113 146.155,293.840 142.720 C 297.832 139.041,297.365 135.769,292.067 130.289 C 286.974 125.020,285.018 124.116,281.462 125.383 M305.808 151.715 C 300.600 154.665,301.131 160.306,307.164 166.122 C 313.087 171.832,318.676 171.881,321.235 166.246 C 322.939 162.493,322.260 160.580,317.483 155.679 C 312.490 150.558,309.590 149.573,305.808 151.715 " stroke="none" fill="#f4f4f4" fill-rule="evenodd"></path><path id="path2" d="M260.100 1.491 C 260.925 1.578,262.275 1.578,263.100 1.491 C 263.925 1.405,263.250 1.334,261.600 1.334 C 259.950 1.334,259.275 1.405,260.100 1.491 M283.600 17.400 C 290.968 24.770,297.086 30.800,297.196 30.800 C 297.306 30.800,291.368 24.770,284.000 17.400 C 276.632 10.030,270.514 4.000,270.404 4.000 C 270.294 4.000,276.232 10.030,283.600 17.400 M286.520 60.400 C 286.520 61.610,286.595 62.105,286.687 61.500 C 286.778 60.895,286.778 59.905,286.687 59.300 C 286.595 58.695,286.520 59.190,286.520 60.400 M217.800 64.131 C 217.360 64.813,216.388 65.782,215.641 66.285 C 214.893 66.788,214.482 67.200,214.727 67.200 C 215.316 67.200,217.919 64.899,218.448 63.911 C 219.131 62.635,218.663 62.793,217.800 64.131 M230.066 73.551 C 229.754 73.749,230.418 73.816,231.666 73.713 C 234.597 73.471,234.995 73.268,232.600 73.238 C 231.500 73.224,230.360 73.365,230.066 73.551 M225.755 77.012 C 225.390 77.569,225.164 78.098,225.253 78.187 C 225.342 78.276,225.718 77.820,226.089 77.174 C 226.914 75.736,226.669 75.617,225.755 77.012 M244.893 86.000 C 244.893 86.770,244.975 87.085,245.076 86.700 C 245.176 86.315,245.176 85.685,245.076 85.300 C 244.975 84.915,244.893 85.230,244.893 86.000 M297.101 90.200 C 297.782 91.080,299.564 92.970,301.061 94.400 C 303.529 96.757,303.468 96.664,300.411 93.400 C 295.834 88.513,295.683 88.368,297.101 90.200 M376.200 110.000 C 383.678 117.480,389.886 123.600,389.996 123.600 C 390.106 123.600,384.078 117.480,376.600 110.000 C 369.122 102.520,362.914 96.400,362.804 96.400 C 362.694 96.400,368.722 102.520,376.200 110.000 M305.600 98.146 C 305.600 98.256,306.140 98.730,306.800 99.200 C 307.460 99.670,308.000 99.964,308.000 99.854 C 308.000 99.744,307.460 99.270,306.800 98.800 C 306.140 98.330,305.600 98.036,305.600 98.146 M311.200 101.796 C 311.200 102.070,313.649 103.284,313.832 103.101 C 313.919 103.014,313.362 102.644,312.595 102.278 C 311.828 101.912,311.200 101.695,311.200 101.796 M268.000 106.200 C 268.746 106.970,269.447 107.600,269.557 107.600 C 269.667 107.600,269.146 106.970,268.400 106.200 C 267.654 105.430,266.953 104.800,266.843 104.800 C 266.733 104.800,267.254 105.430,268.000 106.200 M332.705 107.483 C 333.202 107.579,333.922 107.575,334.305 107.475 C 334.687 107.375,334.280 107.296,333.400 107.301 C 332.520 107.305,332.207 107.387,332.705 107.483 M259.144 117.976 C 259.664 118.429,260.279 118.800,260.511 118.800 C 261.003 118.800,260.979 118.780,259.400 117.855 L 258.200 117.153 259.144 117.976 M266.600 118.027 C 265.940 118.450,265.605 118.797,265.856 118.798 C 266.106 118.799,266.736 118.446,267.256 118.013 C 268.445 117.023,268.159 117.029,266.600 118.027 M287.000 125.661 C 287.440 125.901,289.424 127.650,291.410 129.549 L 295.020 133.000 291.172 129.100 C 289.055 126.955,287.071 125.205,286.762 125.212 C 286.416 125.220,286.508 125.393,287.000 125.661 M278.041 127.414 C 277.359 128.192,276.805 129.047,276.812 129.314 C 276.819 129.581,277.023 129.440,277.266 129.000 C 277.508 128.560,278.167 127.705,278.728 127.100 C 279.290 126.495,279.645 126.000,279.516 126.000 C 279.388 126.000,278.724 126.636,278.041 127.414 M392.909 133.200 C 392.909 134.190,392.987 134.595,393.082 134.100 C 393.178 133.605,393.178 132.795,393.082 132.300 C 392.987 131.805,392.909 132.210,392.909 133.200 M280.600 140.000 C 281.906 141.320,283.065 142.400,283.175 142.400 C 283.285 142.400,282.306 141.320,281.000 140.000 C 279.694 138.680,278.535 137.600,278.425 137.600 C 278.315 137.600,279.294 138.680,280.600 140.000 M293.978 142.700 L 292.600 144.200 294.100 142.822 C 295.496 141.538,295.784 141.200,295.478 141.200 C 295.412 141.200,294.737 141.875,293.978 142.700 M373.398 158.500 L 357.000 175.000 373.500 158.602 C 382.575 149.583,390.000 142.158,390.000 142.102 C 390.000 141.820,388.639 143.164,373.398 158.500 M308.700 150.682 C 309.195 150.778,310.005 150.778,310.500 150.682 C 310.995 150.587,310.590 150.509,309.600 150.509 C 308.610 150.509,308.205 150.587,308.700 150.682 M317.000 155.200 C 318.971 157.180,320.673 158.800,320.783 158.800 C 320.893 158.800,319.371 157.180,317.400 155.200 C 315.429 153.220,313.727 151.600,313.617 151.600 C 313.507 151.600,315.029 153.220,317.000 155.200 M302.120 158.000 C 302.120 159.210,302.195 159.705,302.287 159.100 C 302.378 158.495,302.378 157.505,302.287 156.900 C 302.195 156.295,302.120 156.790,302.120 158.000 M307.200 166.525 C 307.200 166.594,307.785 167.179,308.500 167.825 L 309.800 169.000 308.625 167.700 C 307.530 166.488,307.200 166.216,307.200 166.525 M313.900 170.682 C 314.395 170.778,315.205 170.778,315.700 170.682 C 316.195 170.587,315.790 170.509,314.800 170.509 C 313.810 170.509,313.405 170.587,313.900 170.682 M354.981 176.900 L 353.400 178.600 355.100 177.019 C 356.035 176.149,356.800 175.384,356.800 175.319 C 356.800 175.016,356.452 175.319,354.981 176.900 M341.000 179.200 C 341.859 180.080,342.652 180.800,342.762 180.800 C 342.872 180.800,342.259 180.080,341.400 179.200 C 340.541 178.320,339.748 177.600,339.638 177.600 C 339.528 177.600,340.141 178.320,341.000 179.200 M344.600 182.800 C 345.459 183.680,346.252 184.400,346.362 184.400 C 346.472 184.400,345.859 183.680,345.000 182.800 C 344.141 181.920,343.348 181.200,343.238 181.200 C 343.128 181.200,343.741 181.920,344.600 182.800 M327.701 183.800 C 327.705 184.680,327.787 184.993,327.883 184.495 C 327.979 183.998,327.975 183.278,327.875 182.895 C 327.775 182.513,327.696 182.920,327.701 183.800 M331.200 190.600 C 331.946 191.370,332.647 192.000,332.757 192.000 C 332.867 192.000,332.346 191.370,331.600 190.600 C 330.854 189.830,330.153 189.200,330.043 189.200 C 329.933 189.200,330.454 189.830,331.200 190.600 M335.915 194.875 C 336.281 195.241,336.230 195.538,335.695 196.175 C 335.002 196.998,335.002 196.998,335.899 196.239 C 336.718 195.545,336.577 194.400,335.671 194.400 C 335.544 194.400,335.654 194.614,335.915 194.875 M328.175 203.700 L 327.000 205.000 328.300 203.825 C 329.015 203.179,329.600 202.594,329.600 202.525 C 329.600 202.216,329.270 202.488,328.175 203.700 M319.375 212.500 L 318.200 213.800 319.500 212.625 C 320.215 211.979,320.800 211.394,320.800 211.325 C 320.800 211.016,320.470 211.288,319.375 212.500 M309.978 221.900 L 308.600 223.400 310.100 222.022 C 311.496 220.738,311.784 220.400,311.478 220.400 C 311.412 220.400,310.737 221.075,309.978 221.900 M306.575 225.300 L 305.400 226.600 306.700 225.425 C 307.415 224.779,308.000 224.194,308.000 224.125 C 308.000 223.816,307.670 224.088,306.575 225.300 M301.389 230.500 L 298.600 233.400 301.500 230.611 C 304.194 228.020,304.583 227.600,304.289 227.600 C 304.228 227.600,302.923 228.905,301.389 230.500 M294.189 237.700 L 291.400 240.600 294.300 237.811 C 296.994 235.220,297.383 234.800,297.089 234.800 C 297.028 234.800,295.723 236.105,294.189 237.700 M283.578 248.300 L 282.200 249.800 283.700 248.422 C 285.096 247.138,285.384 246.800,285.078 246.800 C 285.012 246.800,284.337 247.475,283.578 248.300 M279.978 251.900 L 278.600 253.400 280.100 252.022 C 281.496 250.738,281.784 250.400,281.478 250.400 C 281.412 250.400,280.737 251.075,279.978 251.900 M274.181 257.700 L 272.600 259.400 274.300 257.819 C 275.881 256.348,276.184 256.000,275.881 256.000 C 275.816 256.000,275.051 256.765,274.181 257.700 M206.800 325.100 L 141.400 390.600 206.900 325.200 C 267.797 264.397,272.579 259.600,272.300 259.600 C 272.244 259.600,242.769 289.075,206.800 325.100 M59.300 286.687 C 59.905 286.778,60.895 286.778,61.500 286.687 C 62.105 286.595,61.610 286.520,60.400 286.520 C 59.190 286.520,58.695 286.595,59.300 286.687 M89.000 296.251 C 92.523 299.736,96.729 303.500,94.600 301.261 C 93.280 299.873,91.300 298.000,90.200 297.099 C 89.100 296.197,88.560 295.815,89.000 296.251 M107.301 333.400 C 107.305 334.280,107.387 334.593,107.483 334.095 C 107.579 333.598,107.575 332.878,107.475 332.495 C 107.375 332.113,107.296 332.520,107.301 333.400 M131.100 393.489 C 131.815 393.578,132.985 393.578,133.700 393.489 C 134.415 393.401,133.830 393.328,132.400 393.328 C 130.970 393.328,130.385 393.401,131.100 393.489 " stroke="none" fill="#92c091" fill-rule="evenodd"></path><path id="path3" d="M250.575 6.100 L 249.400 7.400 250.700 6.225 C 251.415 5.579,252.000 4.994,252.000 4.925 C 252.000 4.616,251.670 4.888,250.575 6.100 M245.775 10.900 L 244.600 12.200 245.900 11.025 C 246.615 10.379,247.200 9.794,247.200 9.725 C 247.200 9.416,246.870 9.688,245.775 10.900 M241.978 14.700 L 240.600 16.200 242.100 14.822 C 243.496 13.538,243.784 13.200,243.478 13.200 C 243.412 13.200,242.737 13.875,241.978 14.700 M237.775 18.900 L 236.600 20.200 237.900 19.025 C 238.615 18.379,239.200 17.794,239.200 17.725 C 239.200 17.416,238.870 17.688,237.775 18.900 M229.781 26.900 L 228.200 28.600 229.900 27.019 C 231.481 25.548,231.784 25.200,231.481 25.200 C 231.416 25.200,230.651 25.965,229.781 26.900 M225.978 30.700 L 224.600 32.200 226.100 30.822 C 227.496 29.538,227.784 29.200,227.478 29.200 C 227.412 29.200,226.737 29.875,225.978 30.700 M230.200 89.600 C 231.283 90.700,232.260 91.600,232.370 91.600 C 232.480 91.600,231.683 90.700,230.600 89.600 C 229.517 88.500,228.540 87.600,228.430 87.600 C 228.320 87.600,229.117 88.500,230.200 89.600 M253.983 113.300 C 254.964 114.345,255.819 115.200,255.883 115.200 C 256.184 115.200,255.866 114.841,254.100 113.183 L 252.200 111.400 253.983 113.300 M333.775 198.100 L 332.600 199.400 333.900 198.225 C 334.615 197.579,335.200 196.994,335.200 196.925 C 335.200 196.616,334.870 196.888,333.775 198.100 M325.578 206.300 L 324.200 207.800 325.700 206.422 C 326.525 205.663,327.200 204.988,327.200 204.922 C 327.200 204.616,326.862 204.904,325.578 206.300 M49.978 206.700 L 48.600 208.200 50.100 206.822 C 51.496 205.538,51.784 205.200,51.478 205.200 C 51.412 205.200,50.737 205.875,49.978 206.700 M45.978 210.700 L 44.600 212.200 46.100 210.822 C 46.925 210.063,47.600 209.388,47.600 209.322 C 47.600 209.016,47.262 209.304,45.978 210.700 M33.775 222.900 L 32.600 224.200 33.900 223.025 C 35.112 221.930,35.384 221.600,35.075 221.600 C 35.006 221.600,34.421 222.185,33.775 222.900 M21.775 234.900 L 20.600 236.200 21.900 235.025 C 22.615 234.379,23.200 233.794,23.200 233.725 C 23.200 233.416,22.870 233.688,21.775 234.900 M13.978 242.700 L 12.600 244.200 14.100 242.822 C 14.925 242.063,15.600 241.388,15.600 241.322 C 15.600 241.016,15.262 241.304,13.978 242.700 M10.175 246.500 L 9.000 247.800 10.300 246.625 C 11.015 245.979,11.600 245.394,11.600 245.325 C 11.600 245.016,11.270 245.288,10.175 246.500 M5.781 250.900 L 4.200 252.600 5.900 251.019 C 7.481 249.548,7.784 249.200,7.481 249.200 C 7.416 249.200,6.651 249.965,5.781 250.900 M0.893 262.000 C 0.893 262.770,0.975 263.085,1.076 262.700 C 1.176 262.315,1.176 261.685,1.076 261.300 C 0.975 260.915,0.893 261.230,0.893 262.000 " stroke="none" fill="#75aa71" fill-rule="evenodd"></path><path id="path4" d="M193.992 62.700 L 190.200 66.600 194.100 62.808 C 196.245 60.722,198.000 58.967,198.000 58.908 C 198.000 58.618,197.514 59.078,193.992 62.700 M202.600 62.000 C 203.906 63.320,205.065 64.400,205.175 64.400 C 205.285 64.400,204.306 63.320,203.000 62.000 C 201.694 60.680,200.535 59.600,200.425 59.600 C 200.315 59.600,201.294 60.680,202.600 62.000 M286.493 64.800 C 286.493 65.570,286.575 65.885,286.676 65.500 C 286.776 65.115,286.776 64.485,286.676 64.100 C 286.575 63.715,286.493 64.030,286.493 64.800 M186.391 70.300 L 183.000 73.800 186.500 70.409 C 188.425 68.544,190.000 66.969,190.000 66.909 C 190.000 66.618,189.541 67.049,186.391 70.300 M180.181 76.500 L 178.600 78.200 180.300 76.619 C 181.881 75.148,182.184 74.800,181.881 74.800 C 181.816 74.800,181.051 75.565,180.181 76.500 M240.800 78.600 C 241.546 79.370,242.247 80.000,242.357 80.000 C 242.467 80.000,241.946 79.370,241.200 78.600 C 240.454 77.830,239.753 77.200,239.643 77.200 C 239.533 77.200,240.054 77.830,240.800 78.600 M176.581 80.100 L 175.000 81.800 176.700 80.219 C 178.281 78.748,178.584 78.400,178.281 78.400 C 178.216 78.400,177.451 79.165,176.581 80.100 M172.181 84.500 L 170.600 86.200 172.300 84.619 C 173.881 83.148,174.184 82.800,173.881 82.800 C 173.816 82.800,173.051 83.565,172.181 84.500 M168.400 88.200 C 167.428 89.190,166.723 90.000,166.833 90.000 C 166.943 90.000,167.828 89.190,168.800 88.200 C 169.772 87.210,170.477 86.400,170.367 86.400 C 170.257 86.400,169.372 87.210,168.400 88.200 M164.181 92.500 L 162.600 94.200 164.300 92.619 C 165.881 91.148,166.184 90.800,165.881 90.800 C 165.816 90.800,165.051 91.565,164.181 92.500 M299.800 93.600 C 301.106 94.920,302.265 96.000,302.375 96.000 C 302.485 96.000,301.506 94.920,300.200 93.600 C 298.894 92.280,297.735 91.200,297.625 91.200 C 297.515 91.200,298.494 92.280,299.800 93.600 M159.978 96.700 L 158.600 98.200 160.100 96.822 C 160.925 96.063,161.600 95.388,161.600 95.322 C 161.600 95.016,161.262 95.304,159.978 96.700 M155.978 100.700 L 154.600 102.200 156.100 100.822 C 156.925 100.063,157.600 99.388,157.600 99.322 C 157.600 99.016,157.262 99.304,155.978 100.700 M152.378 104.300 L 151.000 105.800 152.500 104.422 C 153.325 103.663,154.000 102.988,154.000 102.922 C 154.000 102.616,153.662 102.904,152.378 104.300 M268.200 106.000 C 269.059 106.880,269.852 107.600,269.962 107.600 C 270.072 107.600,269.459 106.880,268.600 106.000 C 267.741 105.120,266.948 104.400,266.838 104.400 C 266.728 104.400,267.341 105.120,268.200 106.000 M148.800 107.800 C 147.828 108.790,147.123 109.600,147.233 109.600 C 147.343 109.600,148.228 108.790,149.200 107.800 C 150.172 106.810,150.877 106.000,150.767 106.000 C 150.657 106.000,149.772 106.810,148.800 107.800 M328.900 107.476 C 329.285 107.576,329.915 107.576,330.300 107.476 C 330.685 107.375,330.370 107.293,329.600 107.293 C 328.830 107.293,328.515 107.375,328.900 107.476 M144.175 112.500 L 143.000 113.800 144.300 112.625 C 145.512 111.530,145.784 111.200,145.475 111.200 C 145.406 111.200,144.821 111.785,144.175 112.500 M140.800 115.800 C 139.828 116.790,139.123 117.600,139.233 117.600 C 139.343 117.600,140.228 116.790,141.200 115.800 C 142.172 114.810,142.877 114.000,142.767 114.000 C 142.657 114.000,141.772 114.810,140.800 115.800 M136.175 120.500 L 135.000 121.800 136.300 120.625 C 137.015 119.979,137.600 119.394,137.600 119.325 C 137.600 119.016,137.270 119.288,136.175 120.500 M132.175 124.500 L 131.000 125.800 132.300 124.625 C 133.512 123.530,133.784 123.200,133.475 123.200 C 133.406 123.200,132.821 123.785,132.175 124.500 M283.105 124.683 C 283.602 124.779,284.322 124.775,284.705 124.675 C 285.087 124.575,284.680 124.496,283.800 124.501 C 282.920 124.505,282.607 124.587,283.105 124.683 M291.600 129.400 C 293.460 131.270,295.072 132.800,295.182 132.800 C 295.292 132.800,293.860 131.270,292.000 129.400 C 290.140 127.530,288.528 126.000,288.418 126.000 C 288.308 126.000,289.740 127.530,291.600 129.400 M128.175 128.500 L 127.000 129.800 128.300 128.625 C 129.512 127.530,129.784 127.200,129.475 127.200 C 129.406 127.200,128.821 127.785,128.175 128.500 M124.175 132.500 L 123.000 133.800 124.300 132.625 C 125.512 131.530,125.784 131.200,125.475 131.200 C 125.406 131.200,124.821 131.785,124.175 132.500 M296.501 137.400 C 296.505 138.280,296.587 138.593,296.683 138.095 C 296.779 137.598,296.775 136.878,296.675 136.495 C 296.575 136.113,296.496 136.520,296.501 137.400 M115.375 141.300 L 114.200 142.600 115.500 141.425 C 116.712 140.330,116.984 140.000,116.675 140.000 C 116.606 140.000,116.021 140.585,115.375 141.300 M112.175 144.500 L 111.000 145.800 112.300 144.625 C 113.512 143.530,113.784 143.200,113.475 143.200 C 113.406 143.200,112.821 143.785,112.175 144.500 M287.900 145.082 C 288.395 145.178,289.205 145.178,289.700 145.082 C 290.195 144.987,289.790 144.909,288.800 144.909 C 287.810 144.909,287.405 144.987,287.900 145.082 M104.800 151.800 C 103.828 152.790,103.123 153.600,103.233 153.600 C 103.343 153.600,104.228 152.790,105.200 151.800 C 106.172 150.810,106.877 150.000,106.767 150.000 C 106.657 150.000,105.772 150.810,104.800 151.800 M317.400 155.200 C 319.150 156.960,320.671 158.400,320.781 158.400 C 320.891 158.400,319.550 156.960,317.800 155.200 C 316.050 153.440,314.529 152.000,314.419 152.000 C 314.309 152.000,315.650 153.440,317.400 155.200 M100.175 156.500 L 99.000 157.800 100.300 156.625 C 101.015 155.979,101.600 155.394,101.600 155.325 C 101.600 155.016,101.270 155.288,100.175 156.500 M301.693 158.000 C 301.693 158.770,301.775 159.085,301.876 158.700 C 301.976 158.315,301.976 157.685,301.876 157.300 C 301.775 156.915,301.693 157.230,301.693 158.000 M96.378 160.300 L 95.000 161.800 96.500 160.422 C 97.896 159.138,98.184 158.800,97.878 158.800 C 97.812 158.800,97.137 159.475,96.378 160.300 M92.175 164.500 L 91.000 165.800 92.300 164.625 C 93.512 163.530,93.784 163.200,93.475 163.200 C 93.406 163.200,92.821 163.785,92.175 164.500 M88.175 168.500 L 87.000 169.800 88.300 168.625 C 89.512 167.530,89.784 167.200,89.475 167.200 C 89.406 167.200,88.821 167.785,88.175 168.500 M343.000 180.800 C 344.750 182.560,346.271 184.000,346.381 184.000 C 346.491 184.000,345.150 182.560,343.400 180.800 C 341.650 179.040,340.129 177.600,340.019 177.600 C 339.909 177.600,341.250 179.040,343.000 180.800 M60.581 196.100 L 59.000 197.800 60.700 196.219 C 62.281 194.748,62.584 194.400,62.281 194.400 C 62.216 194.400,61.451 195.165,60.581 196.100 M40.175 216.500 L 39.000 217.800 40.300 216.625 C 41.512 215.530,41.784 215.200,41.475 215.200 C 41.406 215.200,40.821 215.785,40.175 216.500 M28.175 228.500 L 27.000 229.800 28.300 228.625 C 29.512 227.530,29.784 227.200,29.475 227.200 C 29.406 227.200,28.821 227.785,28.175 228.500 M7.200 274.525 C 7.200 274.594,7.785 275.179,8.500 275.825 L 9.800 277.000 8.625 275.700 C 7.530 274.488,7.200 274.216,7.200 274.525 M11.200 278.525 C 11.200 278.594,11.785 279.179,12.500 279.825 L 13.800 281.000 12.625 279.700 C 11.530 278.488,11.200 278.216,11.200 278.525 M17.800 285.200 C 19.328 286.740,20.669 288.000,20.779 288.000 C 20.889 288.000,19.728 286.740,18.200 285.200 C 16.672 283.660,15.331 282.400,15.221 282.400 C 15.111 282.400,16.272 283.660,17.800 285.200 M64.100 286.676 C 64.485 286.776,65.115 286.776,65.500 286.676 C 65.885 286.575,65.570 286.493,64.800 286.493 C 64.030 286.493,63.715 286.575,64.100 286.676 M23.200 290.525 C 23.200 290.594,23.785 291.179,24.500 291.825 L 25.800 293.000 24.625 291.700 C 23.530 290.488,23.200 290.216,23.200 290.525 M27.800 295.200 C 28.883 296.300,29.860 297.200,29.970 297.200 C 30.080 297.200,29.283 296.300,28.200 295.200 C 27.117 294.100,26.140 293.200,26.030 293.200 C 25.920 293.200,26.717 294.100,27.800 295.200 M93.400 300.000 C 94.706 301.320,95.865 302.400,95.975 302.400 C 96.085 302.400,95.106 301.320,93.800 300.000 C 92.494 298.680,91.335 297.600,91.225 297.600 C 91.115 297.600,92.094 298.680,93.400 300.000 M107.293 329.600 C 107.293 330.370,107.375 330.685,107.476 330.300 C 107.576 329.915,107.576 329.285,107.476 328.900 C 107.375 328.515,107.293 328.830,107.293 329.600 M165.375 366.100 L 164.200 367.400 165.500 366.225 C 166.712 365.130,166.984 364.800,166.675 364.800 C 166.606 364.800,166.021 365.385,165.375 366.100 M99.583 366.900 C 100.564 367.945,101.419 368.800,101.483 368.800 C 101.784 368.800,101.466 368.441,99.700 366.783 L 97.800 365.000 99.583 366.900 M161.775 369.700 L 160.600 371.000 161.900 369.825 C 163.112 368.730,163.384 368.400,163.075 368.400 C 163.006 368.400,162.421 368.985,161.775 369.700 M103.200 370.525 C 103.200 370.594,103.785 371.179,104.500 371.825 L 105.800 373.000 104.625 371.700 C 103.530 370.488,103.200 370.216,103.200 370.525 M157.578 373.900 L 156.200 375.400 157.700 374.022 C 159.096 372.738,159.384 372.400,159.078 372.400 C 159.012 372.400,158.337 373.075,157.578 373.900 M107.200 374.525 C 107.200 374.594,107.785 375.179,108.500 375.825 L 109.800 377.000 108.625 375.700 C 107.530 374.488,107.200 374.216,107.200 374.525 M153.381 378.100 L 151.800 379.800 153.500 378.219 C 155.081 376.748,155.384 376.400,155.081 376.400 C 155.016 376.400,154.251 377.165,153.381 378.100 M111.200 378.525 C 111.200 378.594,111.785 379.179,112.500 379.825 L 113.800 381.000 112.625 379.700 C 111.530 378.488,111.200 378.216,111.200 378.525 M149.375 382.100 L 148.200 383.400 149.500 382.225 C 150.712 381.130,150.984 380.800,150.675 380.800 C 150.606 380.800,150.021 381.385,149.375 382.100 M115.200 382.600 C 115.946 383.370,116.647 384.000,116.757 384.000 C 116.867 384.000,116.346 383.370,115.600 382.600 C 114.854 381.830,114.153 381.200,114.043 381.200 C 113.933 381.200,114.454 381.830,115.200 382.600 M145.375 386.100 L 144.200 387.400 145.500 386.225 C 146.712 385.130,146.984 384.800,146.675 384.800 C 146.606 384.800,146.021 385.385,145.375 386.100 M119.200 386.525 C 119.200 386.594,119.785 387.179,120.500 387.825 L 121.800 389.000 120.625 387.700 C 119.530 386.488,119.200 386.216,119.200 386.525 " stroke="none" fill="#69a96c" fill-rule="evenodd"></path></g></svg>